<svg width="677" height="418" viewBox="0 0 677 418" fill="none" xmlns="http://www.w3.org/2000/svg">
<path d="M296.979 156.36C280.959 152.38 265.319 159.78 262.059 172.89C258.799 186 269.159 199.86 285.179 203.85C287.959 204.54 290.759 204.89 293.439 204.91C293.049 263.03 351.889 322.04 435.289 342.77C518.799 363.53 598.529 338.86 625.299 287.15C627.909 288.62 630.829 289.78 633.959 290.56C649.979 294.54 665.619 287.14 668.879 274.03C672.139 260.92 661.779 247.05 645.759 243.07" stroke="#3BAF73" stroke-width="14.7724" stroke-miterlimit="10" stroke-linecap="round" stroke-linejoin="round"/>
<path d="M463.705 186.25C466.741 174.04 462.667 162.517 454.606 160.513C446.544 158.508 437.548 166.781 434.512 178.991C431.477 191.201 435.551 202.724 443.612 204.729C451.673 206.733 460.669 198.46 463.705 186.25Z" fill="#3BAF73"/>
<path d="M506.744 196.943C509.78 184.733 505.706 173.21 497.645 171.205C489.583 169.201 480.587 177.474 477.552 189.684C474.516 201.894 478.59 213.417 486.651 215.421C494.712 217.426 503.708 209.152 506.744 196.943Z" fill="#3BAF73"/>
<path d="M365.718 170.47C365.718 170.47 342.978 272.49 446.858 298.32C550.738 324.15 568.528 220.9 568.528 220.9" stroke="#3BAF73" stroke-width="14.7724" stroke-miterlimit="10" stroke-linecap="round" stroke-linejoin="round"/>
<path d="M649.908 239.22L668.088 197.83L625.578 180.36L627.238 134.44L581.298 132.48L567.848 88.5499L523.448 100.68L498.568 62.0199L459.558 84.6799L427.188 53.1599L395.928 85.6299L355.258 66.1099L337.478 107.52L292.488 104.66L293.048 148.94" stroke="#3BAF73" stroke-width="14.7724" stroke-miterlimit="10" stroke-linecap="round" stroke-linejoin="round"/>
<path d="M175.549 321.89C216.389 328.73 240.659 348.4 240.659 366.36C240.659 390.67 188.489 410.37 124.139 410.37C59.7894 410.37 7.60938 390.67 7.60938 366.36C7.60938 348.91 34.4994 329.61 73.4894 322.49" stroke="#3BAF73" stroke-width="14.7724" stroke-miterlimit="10" stroke-linecap="round" stroke-linejoin="round"/>
<path d="M197.319 294.62C223.089 254.2 211.209 200.55 170.789 174.78C160.349 168.13 149.029 164.03 137.529 162.24L137.689 162.22L114.139 33.7999L77.6287 7.67993L51.5487 45.4999L79.5287 63.3399L64.0687 87.5899L86.4787 101.87L72.0487 124.51L82.0487 169.67L82.4087 171.9C67.4287 178.59 60.4387 186.44 50.9587 201.3C25.1887 241.72 37.0687 295.37 77.4887 321.14C117.899 346.91 171.549 335.04 197.319 294.62Z" stroke="#F18818" stroke-width="14.7724" stroke-miterlimit="10" stroke-linecap="round" stroke-linejoin="round"/>
<path d="M135.96 299.77C149.154 299.77 159.85 289.074 159.85 275.88C159.85 262.686 149.154 251.99 135.96 251.99C122.766 251.99 112.07 262.686 112.07 275.88C112.07 289.074 122.766 299.77 135.96 299.77Z" stroke="#F18818" stroke-width="14.7724" stroke-miterlimit="10" stroke-linecap="round" stroke-linejoin="round"/>
</svg>
