<svg width="643" height="567" viewBox="0 0 643 567" fill="none" xmlns="http://www.w3.org/2000/svg">
<path d="M589.748 248.46C617.508 255.14 635.958 266.98 635.958 280.46C635.958 301.32 591.828 318.23 537.388 318.23C482.948 318.23 438.818 301.32 438.818 280.46C438.818 269.54 450.908 259.7 470.248 252.81" stroke="#E62043" stroke-width="14.041" stroke-miterlimit="10" stroke-linecap="round" stroke-linejoin="round"/>
<path d="M416.039 505.54C426.659 513.46 432.359 522.12 431.299 530.53C428.479 552.97 378.719 565.2 320.159 557.85C261.599 550.5 216.399 526.35 219.219 503.91C220.239 495.8 227.389 489.02 238.879 484.02" stroke="#E62043" stroke-width="14.041" stroke-miterlimit="10" stroke-linecap="round" stroke-linejoin="round"/>
<path d="M160.16 137.28C160.16 137.28 160.16 137.28 160.15 137.26C160.15 137.26 199.28 120.72 238.43 121.52C277.58 122.32 311.13 136.72 328.04 161.18C330.35 159.56 333.01 158.27 335.96 157.4C348.23 153.77 360.58 158.97 363.55 169.01C366.52 179.05 358.98 190.13 346.71 193.76C344.31 194.47 341.9 194.84 339.58 194.88C341.99 239.92 298.42 287.7 234.49 306.61C170.64 325.5 108.18 309.17 85.6297 270.2C83.8297 271.24 81.8197 272.1 79.6997 272.73C67.4297 276.36 55.0797 271.16 52.1097 261.12C49.1397 251.08 56.6797 240 68.9497 236.37C71.6397 235.57 74.3297 235.21 76.9197 235.23C78.1797 197.34 110.94 158.5 160.16 137.26L160.18 137.25" stroke="#E62043" stroke-width="14.041" stroke-miterlimit="10" stroke-linecap="round" stroke-linejoin="round"/>
<path d="M185.862 211.142C192.032 209.318 194.792 200.261 192.028 190.914C189.263 181.567 182.021 175.469 175.851 177.293C169.681 179.118 166.921 188.175 169.685 197.522C172.45 206.869 179.692 212.967 185.862 211.142Z" fill="#E62043"/>
<path d="M218.813 201.402C224.983 199.577 227.743 190.521 224.979 181.174C222.214 171.826 214.972 165.728 208.802 167.553C202.632 169.378 199.872 178.434 202.636 187.782C205.401 197.129 212.643 203.227 218.813 201.402Z" fill="#E62043"/>
<path d="M120.398 218.82C120.398 218.82 145.248 295.89 224.778 272.37C304.298 248.85 275.658 172.9 275.658 172.9" stroke="#E62043" stroke-width="14.041" stroke-miterlimit="10" stroke-linecap="round" stroke-linejoin="round"/>
<path d="M104.639 298.29C88.6792 303.05 89.5692 290.01 71.5992 284.96C62.4492 282.39 45.9792 288.38 36.8392 279.04C30.2192 272.27 34.8592 255.97 29.6792 243.97C25.8392 235.08 9.96922 228.48 7.49922 216.05C5.55922 206.27 17.2292 193.57 16.4092 181.29C15.2792 164.57 4.80922 147.28 9.95922 133.03C15.2992 118.27 34.8692 111.43 45.3292 99.3199C55.3592 87.7099 58.5592 67.5199 71.8192 58.3299C84.5692 49.4899 105.019 53.2499 119.449 46.6399C133.889 40.0199 144.199 22.1299 159.019 17.7499C172.749 13.6899 190.199 23.4899 205.439 21.7399C220.109 20.0499 235.019 6.45994 249.929 7.78994C264.809 9.11994 276.619 24.9899 290.609 30.1699C304.399 35.2799 323.999 31.1299 335.839 40.8199C346.789 49.7799 346.829 69.4999 355.229 83.0599C362.039 94.0499 378.999 98.3599 382.769 107.88C387.639 120.2 377.409 134.28 378.199 144.3C379.239 157.45 390.039 170.6 386.299 180.16C381.649 192.04 363.629 194 356.039 201.01C341.919 214.05 349.959 224.71 333.649 230.46" stroke="#E62043" stroke-width="14.041" stroke-miterlimit="10" stroke-linecap="round" stroke-linejoin="round"/>
<path d="M480.588 193.82C477.658 184.89 474.678 175.44 478.778 166.23C480.648 162.02 484.288 158.73 488.798 157.8C497.438 156 503.588 163.19 508.428 169.68C512.558 160.26 517.288 150.15 527.058 146.03C533.088 143.48 540.188 144.54 544.628 149.35C551.208 156.49 544.708 164.2 546.498 171.45C547.858 176.92 553.468 180.22 558.878 181.8C565.958 183.87 573.758 184.18 579.138 190.26C581.448 192.87 582.338 196.55 581.098 199.81C578.468 206.75 569.548 205.98 563.438 209.2C558.018 212.05 555.648 218.76 556.668 224.7C557.998 232.47 553.508 240.07 546.288 243.23C542.378 244.94 538.258 246.19 534.058 246.91" stroke="#89BD24" stroke-width="14.041" stroke-miterlimit="10" stroke-linecap="round" stroke-linejoin="round"/>
<path d="M537.029 202.46C534.039 205.16 523.199 195.43 516.909 193.52C505.069 189.93 492.169 187.65 484.769 197.55C481.739 201.61 466.789 197.4 465.369 199.47C457.629 210.76 469.319 210.88 468.799 222.08C468.669 224.93 457.269 224.93 456.609 238.02C456.049 248.98 481.839 256.21 492.259 246.88C498.319 241.46 501.089 238.98 502.189 238.98C516.499 239.08 494.259 262.24 501.799 269.13C507.069 273.96 516.079 271.63 521.859 275.84C523.859 277.3 525.279 279.42 527.129 281.07C534.459 287.62 546.339 284.98 554.329 279.27C562.319 273.55 568.339 265.33 576.599 260.02C581.299 257 586.959 254.65 589.479 249.66C592.409 243.86 589.909 236.92 587.399 230.94C585.789 227.11 584.089 223.14 580.959 220.41C577.829 217.68 559.859 217.72 556.559 220.25" stroke="#89BD24" stroke-width="14.041" stroke-miterlimit="10" stroke-linecap="round" stroke-linejoin="round"/>
<path d="M546.549 164.8C552.429 160.77 568.329 158.84 575.359 159.95C578.289 160.41 581.319 161.45 583.149 163.78C585.559 166.83 585.309 171.2 586.999 174.69C589.979 180.84 597.719 182.56 604.329 184.28C610.949 186 618.549 189.91 618.749 196.74C618.919 202.4 613.779 206.76 612.189 212.19C611.459 214.68 611.499 217.32 611.139 219.89C610.029 227.84 597.799 238.14 590.629 241.73" stroke="#89BD24" stroke-width="14.041" stroke-miterlimit="10" stroke-linecap="round" stroke-linejoin="round"/>
<path d="M460.369 381.84C460.369 381.84 353.279 376.36 288.289 329.52L272.969 451.56C272.969 451.56 343.889 498.21 445.249 502.28L460.369 381.84Z" stroke="#89BD24" stroke-width="14.041" stroke-miterlimit="10" stroke-linecap="round" stroke-linejoin="round"/>
<path d="M415.719 502.28L412.469 528.17L238.889 499.59L252.999 387.12L280.619 390.58" stroke="#89BD24" stroke-width="14.041" stroke-miterlimit="10" stroke-linecap="round" stroke-linejoin="round"/>
<path d="M315.1 380.58C326.77 383.7 324.35 392.72 336.02 395.84C347.69 398.96 350.1 389.94 361.76 393.07C373.43 396.19 371.01 405.21 382.68 408.33C394.35 411.45 396.76 402.44 408.43 405.56C420.1 408.68 417.69 417.7 429.35 420.82" stroke="#89BD24" stroke-width="14.041" stroke-miterlimit="10" stroke-linecap="round" stroke-linejoin="round"/>
<path d="M309.088 403.06C320.758 406.18 318.338 415.2 330.008 418.32C341.678 421.44 344.088 412.42 355.748 415.55C367.418 418.67 364.998 427.69 376.668 430.81C388.338 433.93 390.748 424.92 402.418 428.04C414.088 431.16 411.678 440.18 423.338 443.3" stroke="#89BD24" stroke-width="14.041" stroke-miterlimit="10" stroke-linecap="round" stroke-linejoin="round"/>
<path d="M302.908 426.17C314.578 429.29 312.158 438.31 323.828 441.43C335.498 444.55 337.908 435.53 349.568 438.66C361.238 441.78 358.818 450.8 370.488 453.92C382.158 457.04 384.568 448.03 396.238 451.15C407.908 454.27 405.498 463.29 417.158 466.41" stroke="#89BD24" stroke-width="14.041" stroke-miterlimit="10" stroke-linecap="round" stroke-linejoin="round"/>
</svg>
