<svg width="668" height="538" viewBox="0 0 668 538" fill="none" xmlns="http://www.w3.org/2000/svg">
<path d="M121.209 353.15C104.039 323.06 94.3594 288.98 94.3594 252.87C94.3594 231.05 97.8894 209.98 104.479 190.07" stroke="#F18818" stroke-width="10" stroke-miterlimit="10" stroke-linecap="round" stroke-linejoin="round"/>
<path d="M461.17 445.53C425.58 463.39 384.53 473.58 340.83 473.58C308.08 473.58 276.82 467.86 248.24 457.48" stroke="#F18818" stroke-width="10" stroke-miterlimit="10" stroke-linecap="round" stroke-linejoin="round"/>
<path d="M569.029 169.32C580.809 195.09 587.299 223.3 587.299 252.86C587.299 273.55 584.119 293.58 578.179 312.57" stroke="#F18818" stroke-width="10" stroke-miterlimit="10" stroke-linecap="round" stroke-linejoin="round"/>
<path d="M208.561 66.5901C246.781 44.7801 292.151 32.1501 340.831 32.1501C363.531 32.1501 385.521 34.9001 406.401 40.0501" stroke="#F18818" stroke-width="10" stroke-miterlimit="10" stroke-linecap="round" stroke-linejoin="round"/>
<path d="M524.51 482.99C560.364 482.99 589.43 453.924 589.43 418.07C589.43 382.216 560.364 353.15 524.51 353.15C488.656 353.15 459.59 382.216 459.59 418.07C459.59 453.924 488.656 482.99 524.51 482.99Z" stroke="#E51844" stroke-width="10" stroke-miterlimit="10" stroke-linecap="round"/>
<path d="M524.509 435.03C533.876 435.03 541.469 427.437 541.469 418.07C541.469 408.703 533.876 401.11 524.509 401.11C515.142 401.11 507.549 408.703 507.549 418.07C507.549 427.437 515.142 435.03 524.509 435.03Z" stroke="#E51844" stroke-width="10" stroke-miterlimit="10" stroke-linecap="round"/>
<path d="M517.829 436.82L499.449 478.12" stroke="#E51844" stroke-width="10" stroke-miterlimit="10" stroke-linecap="round"/>
<path d="M552.21 359.57L532.92 402.9" stroke="#E51844" stroke-width="10" stroke-miterlimit="10" stroke-linecap="round"/>
<path d="M569.02 371.11L517.83 481.74" stroke="#E51844" stroke-width="10" stroke-miterlimit="10" stroke-linecap="round"/>
<path d="M581.23 387.45L559.18 440.4" stroke="#E51844" stroke-width="10" stroke-miterlimit="10" stroke-linecap="round"/>
<path d="M539.299 353.15C549.769 331.36 572.049 316.32 597.839 316.32C633.689 316.32 662.759 345.38 662.759 381.24C662.759 417.1 633.699 446.16 597.839 446.16C593.009 446.16 588.299 445.63 583.769 444.63" stroke="#E51844" stroke-width="10" stroke-miterlimit="10" stroke-linecap="round"/>
<path d="M597.839 398.2C607.206 398.2 614.799 390.607 614.799 381.24C614.799 371.874 607.206 364.28 597.839 364.28C588.472 364.28 580.879 371.874 580.879 381.24C580.879 390.607 588.472 398.2 597.839 398.2Z" stroke="#E51844" stroke-width="10" stroke-miterlimit="10" stroke-linecap="round"/>
<path d="M625.53 322.74L606.25 366.07" stroke="#E51844" stroke-width="10" stroke-miterlimit="10" stroke-linecap="round"/>
<path d="M642.35 334.28L591.16 444.91" stroke="#E51844" stroke-width="10" stroke-miterlimit="10" stroke-linecap="round"/>
<path d="M654.56 350.62L632.51 403.57" stroke="#E51844" stroke-width="10" stroke-miterlimit="10" stroke-linecap="round"/>
<path d="M61.8691 314.73C77.4291 326.37 55.0491 356.29 70.6091 367.93C86.1691 379.57 108.549 349.64 124.109 361.28C139.669 372.92 117.289 402.85 132.849 414.48C148.409 426.12 170.789 396.19 186.349 407.83C201.909 419.47 179.529 449.4 195.089 461.04C210.649 472.68 233.039 442.75 248.599 454.39" stroke="#2253A1" stroke-width="10" stroke-miterlimit="10" stroke-linecap="round" stroke-linejoin="round"/>
<path d="M87.8887 327.51C103.269 340.24 79.7087 368.69 95.0887 381.43C110.469 394.16 134.019 365.71 149.399 378.45C164.779 391.18 141.229 419.63 156.609 432.37C171.989 445.1 195.539 416.65 210.919 429.39C226.299 442.13 202.749 470.58 218.129 483.31C233.509 496.05 257.069 467.59 272.449 480.33" stroke="#E51844" stroke-width="10" stroke-miterlimit="10" stroke-linecap="round"/>
<path d="M50.2305 360.08C65.7905 371.72 43.4105 401.64 58.9705 413.28C74.5305 424.92 96.9105 394.99 112.47 406.63C128.03 418.27 105.65 448.2 121.21 459.83C136.77 471.47 159.15 441.54 174.71 453.18C190.27 464.82 167.89 494.75 183.45 506.39C199.01 518.03 221.4 488.1 236.96 499.74" stroke="#2253A1" stroke-width="10" stroke-miterlimit="10" stroke-linecap="round" stroke-linejoin="round"/>
<path d="M76.2598 372.86C91.6398 385.59 68.0798 414.04 83.4598 426.78C98.8398 439.51 122.39 411.06 137.77 423.8C153.15 436.53 129.6 464.98 144.98 477.72C160.36 490.45 183.91 462 199.29 474.74C214.67 487.48 191.12 515.93 206.5 528.66C221.88 541.39 245.44 512.94 260.82 525.68" stroke="#E51844" stroke-width="10" stroke-miterlimit="10" stroke-linecap="round"/>
<path d="M400.27 97.5801L388.51 91.8401C385.21 90.2301 383.84 86.2501 385.45 82.9501L421.32 9.47006C422.93 6.17006 426.91 4.80006 430.21 6.41006L441.97 12.1501C445.27 13.7601 446.64 17.7401 445.03 21.0401L409.16 94.5201C407.55 97.8201 403.57 99.1901 400.27 97.5801Z" stroke="#8ABE28" stroke-width="10" stroke-miterlimit="10" stroke-linecap="round"/>
<path d="M446.004 51.9152L433.037 45.5847L419.591 73.1268L432.558 79.4572L446.004 51.9152Z" stroke="#8ABE28" stroke-width="10" stroke-miterlimit="10" stroke-linecap="round"/>
<path d="M440.319 126.53L443.599 145.62C444.089 148.45 446.069 150.98 448.859 152.35L527.239 190.62C530.479 192.2 534.239 192.03 536.959 190.17L558.889 175.17C560.109 174.34 561.069 173.23 561.709 171.93L603.179 86.99C605.179 82.89 603.069 77.75 598.469 75.5L512.749 33.65C510.159 32.39 507.199 32.24 504.709 33.25L497.389 36.22C495.269 37.08 492.749 36.96 490.549 35.88L468.499 25.11C464.309 23.06 459.429 24.43 457.609 28.16L419.369 106.49C417.589 110.13 419.469 114.71 423.559 116.7L482.399 145.43" stroke="#8ABE28" stroke-width="10" stroke-miterlimit="10" stroke-linecap="round"/>
<path d="M573.025 42.556L557.102 34.7822L549.819 49.699L565.742 57.4727L573.025 42.556Z" stroke="#8ABE28" stroke-width="10" stroke-miterlimit="10" stroke-linecap="round"/>
<path d="M600.142 129.812L585.701 122.762L574.431 145.847L588.871 152.897L600.142 129.812Z" stroke="#8ABE28" stroke-width="10" stroke-miterlimit="10" stroke-linecap="round"/>
<path d="M531.199 22.1401L607.989 59.6301C611.389 61.2901 614.999 59.9801 615.099 57.0501L615.439 47.1001C615.549 43.9401 613.139 40.6001 609.479 38.8001L546.099 7.86006C542.629 6.17006 538.739 6.28006 536.379 8.14006L528.739 14.1601C526.139 16.1901 527.409 20.2901 531.199 22.1401Z" stroke="#8ABE28" stroke-width="10" stroke-miterlimit="10" stroke-linecap="round"/>
<path d="M593.84 183.09L582.61 177.61C580.5 176.58 579.62 174.03 580.65 171.91L610.4 110.97C611.43 108.86 613.98 107.98 616.1 109.01L627.33 114.49C629.44 115.52 630.32 118.07 629.29 120.19L599.54 181.13C598.5 183.25 595.95 184.12 593.84 183.09Z" stroke="#8ABE28" stroke-width="10" stroke-miterlimit="10" stroke-linecap="round"/>
<path d="M559.495 95.6869C562.608 89.3097 559.327 81.3056 552.165 77.8094C545.004 74.3132 536.675 76.6488 533.561 83.026C530.448 89.4032 533.729 97.4072 540.891 100.903C548.052 104.4 556.381 102.064 559.495 95.6869Z" stroke="#8ABE28" stroke-width="10" stroke-miterlimit="10" stroke-linecap="round"/>
<path d="M494.382 102.218C499.167 92.4164 494.123 80.1142 483.115 74.7403C472.108 69.3664 459.305 72.9557 454.52 82.7573C449.735 92.5589 454.779 104.861 465.786 110.235C476.794 115.609 489.597 112.02 494.382 102.218Z" stroke="#8ABE28" stroke-width="10" stroke-miterlimit="10" stroke-linecap="round"/>
<path d="M540.014 135.596C542.415 130.678 539.884 124.505 534.361 121.808C528.837 119.111 522.413 120.912 520.012 125.83C517.611 130.749 520.142 136.922 525.665 139.618C531.189 142.315 537.613 140.514 540.014 135.596Z" stroke="#8ABE28" stroke-width="10" stroke-miterlimit="10" stroke-linecap="round"/>
<path d="M480.142 95.3431C481.531 92.4993 480.065 88.9292 476.869 87.3688C473.673 85.8085 469.957 86.8489 468.568 89.6926C467.18 92.5363 468.646 96.1065 471.842 97.6668C475.038 99.2271 478.754 98.1868 480.142 95.3431Z" stroke="#8ABE28" stroke-width="10" stroke-miterlimit="10" stroke-linecap="round"/>
<path d="M537.45 75.16L472.09 72.2C448.27 75.68 445.67 100.55 465.67 110.32L525.67 139.61C532.73 143.06 538.4 138.9 541.47 132.62L557.8 99.1799C563.36 87.7599 560.14 75.57 537.45 75.16Z" stroke="#8ABE28" stroke-width="10" stroke-miterlimit="10" stroke-linecap="round"/>
<path d="M85.3389 149.62L130.789 111.35C130.789 111.35 177.429 114.99 173.209 93.83C167.149 63.46 131.949 84.62 131.949 84.62C131.949 84.62 147.959 48.73 115.639 48.73C92.4089 48.73 103.929 92.07 103.929 92.07L64.1289 125.7" stroke="#3BAF73" stroke-width="10" stroke-miterlimit="10" stroke-linecap="round" stroke-linejoin="round"/>
<path d="M71.3496 129.13L77.0296 130.82L73.5096 133.47L80.2396 134.39L78.3996 138.48L84.3696 138.55L83.0096 141.57" stroke="#3BAF73" stroke-width="5" stroke-miterlimit="10" stroke-linecap="round" stroke-linejoin="round"/>
<path d="M51.3789 139.95L58.5789 141.57L53.2489 147.04L62.0389 147.07L58.6089 154.65L66.5789 153.38L64.0489 158.99" stroke="#3BAF73" stroke-width="5" stroke-miterlimit="10" stroke-linecap="round" stroke-linejoin="round"/>
<path d="M48.9794 134.57L9.85938 160.83" stroke="#3BAF73" stroke-width="10" stroke-miterlimit="10" stroke-linecap="round" stroke-linejoin="round"/>
<path d="M64.1299 160.83L29.4199 187.1" stroke="#3BAF73" stroke-width="10" stroke-miterlimit="10" stroke-linecap="round" stroke-linejoin="round"/>
<path d="M196.57 190.07H17.3496C10.7496 190.07 5.34961 184.67 5.34961 178.07V31.3801C5.34961 24.7801 10.7496 19.3801 17.3496 19.3801H196.57C203.17 19.3801 208.57 24.7801 208.57 31.3801V178.08C208.57 184.67 203.17 190.07 196.57 190.07Z" stroke="#3BAF73" stroke-width="10" stroke-miterlimit="10" stroke-linecap="round" stroke-linejoin="round"/>
<path d="M453.189 265.52V353.35H215.699V265.52" stroke="#F18818" stroke-width="10" stroke-miterlimit="10" stroke-linecap="round" stroke-linejoin="round"/>
<path d="M215.699 232.6C215.699 232.6 226.769 157.49 335.189 157.49C443.609 157.49 453.189 236.11 453.189 236.11" stroke="#F18818" stroke-width="10" stroke-miterlimit="10" stroke-linecap="round" stroke-linejoin="round"/>
<path d="M316.32 179.83C316.32 179.83 316.32 179.83 316.32 179.81C316.32 179.81 350 176.01 379.78 185.48C409.56 194.95 431.97 213.56 439.37 236.11C441.51 235.39 443.83 235.01 446.29 235.01C456.5 235.01 464.78 241.79 464.78 250.14C464.78 258.49 456.5 265.27 446.29 265.27C444.29 265.27 442.37 265.01 440.58 264.52C432.23 299.53 388.08 326.23 334.87 326.23C281.74 326.23 237.64 299.6 229.2 264.68C227.59 265.07 225.86 265.28 224.09 265.28C213.88 265.28 205.6 258.5 205.6 250.15C205.6 241.8 213.88 235.02 224.09 235.02C226.33 235.02 228.47 235.35 230.44 235.95C239.98 207.24 273.84 184.94 316.31 179.82H316.33" stroke="#F18818" stroke-width="10" stroke-miterlimit="10" stroke-linecap="round" stroke-linejoin="round"/>
<path d="M319.28 242.16C324.417 242.16 328.58 235.856 328.58 228.08C328.58 220.304 324.417 214 319.28 214C314.144 214 309.98 220.304 309.98 228.08C309.98 235.856 314.144 242.16 319.28 242.16Z" fill="#F18818"/>
<path d="M346.7 242.16C351.837 242.16 356 235.856 356 228.08C356 220.304 351.837 214 346.7 214C341.564 214 337.4 220.304 337.4 228.08C337.4 235.856 341.564 242.16 346.7 242.16Z" fill="#F18818"/>
<path d="M267.439 233.22C267.439 233.22 269.019 297.82 335.189 297.82C401.359 297.82 396.639 233.22 396.639 233.22" stroke="#F18818" stroke-width="10" stroke-miterlimit="10" stroke-linecap="round" stroke-linejoin="round"/>
</svg>
