<svg width="679" height="324" viewBox="0 0 679 324" fill="none" xmlns="http://www.w3.org/2000/svg">
<path d="M152.72 224.47C118.14 231.8 94.8197 246.14 94.2097 263.41C93.2597 290.11 146.98 313.69 214.2 316.09C281.42 318.48 336.68 298.78 337.63 272.08C338.13 258.1 323.64 244.98 300.08 235.3" stroke="#F18818" stroke-width="14" stroke-miterlimit="10" stroke-linecap="round" stroke-linejoin="round"/>
<path d="M619.11 120.71C619.11 120.71 619.11 120.71 619.13 120.69C581.12 79.6299 547.1 65.1199 547.1 65.1199C506.7 46.1799 465.17 43.9699 435.55 60.4299C434.01 57.6099 431.94 54.9499 429.37 52.5699C418.67 42.6799 403.42 41.7499 395.33 50.5099C387.24 59.2599 389.35 74.3899 400.05 84.2899C402.14 86.2199 404.42 87.8199 406.76 89.0299C381.57 133.83 401.98 204.62 457.75 256.19C513.45 307.7 585.49 322.53 628.19 294.1C629.51 296.06 631.12 297.97 632.97 299.68C643.67 309.57 658.92 310.5 667.01 301.74C675.11 292.99 672.99 277.86 662.29 267.96C659.94 265.79 657.38 264.07 654.73 262.77C672.56 223.42 658.69 167.22 619.12 120.69L619.1 120.67" stroke="#F18818" stroke-width="14" stroke-miterlimit="10" stroke-linecap="round" stroke-linejoin="round"/>
<path d="M578.953 177.428C586.493 169.274 588.244 158.63 582.863 153.654C577.482 148.679 567.007 151.256 559.467 159.41C551.927 167.564 550.176 178.208 555.557 183.184C560.938 188.159 571.413 185.582 578.953 177.428Z" fill="#F18818"/>
<path d="M550.218 150.857C557.759 142.702 559.509 132.059 554.128 127.083C548.747 122.107 538.273 124.684 530.733 132.839C523.193 140.993 521.442 151.637 526.823 156.613C532.204 161.588 542.678 159.011 550.218 150.857Z" fill="#F18818"/>
<path d="M618.59 224.06C618.59 224.06 554.32 290.25 484.94 226.1C415.56 161.95 483.14 98.8101 483.14 98.8101" stroke="#F18818" stroke-width="14" stroke-miterlimit="10" stroke-linecap="round" stroke-linejoin="round"/>
<path d="M629.37 170.71C631.607 170.71 633.42 168.897 633.42 166.66C633.42 164.423 631.607 162.61 629.37 162.61C627.134 162.61 625.32 164.423 625.32 166.66C625.32 168.897 627.134 170.71 629.37 170.71Z" fill="#F18818"/>
<path d="M611.2 143.03C613.437 143.03 615.25 141.216 615.25 138.98C615.25 136.743 613.437 134.93 611.2 134.93C608.964 134.93 607.15 136.743 607.15 138.98C607.15 141.216 608.964 143.03 611.2 143.03Z" fill="#F18818"/>
<path d="M609.82 162.21C612.056 162.21 613.87 160.397 613.87 158.16C613.87 155.923 612.056 154.11 609.82 154.11C607.583 154.11 605.77 155.923 605.77 158.16C605.77 160.397 607.583 162.21 609.82 162.21Z" fill="#F18818"/>
<path d="M591.191 120.43C593.427 120.43 595.241 118.617 595.241 116.38C595.241 114.143 593.427 112.33 591.191 112.33C588.954 112.33 587.141 114.143 587.141 116.38C587.141 118.617 588.954 120.43 591.191 120.43Z" fill="#F18818"/>
<path d="M592.021 141.65C594.258 141.65 596.071 139.837 596.071 137.6C596.071 135.363 594.258 133.55 592.021 133.55C589.784 133.55 587.971 135.363 587.971 137.6C587.971 139.837 589.784 141.65 592.021 141.65Z" fill="#F18818"/>
<path d="M562.861 102.41C565.097 102.41 566.911 100.597 566.911 98.3601C566.911 96.1233 565.097 94.3101 562.861 94.3101C560.624 94.3101 558.811 96.1233 558.811 98.3601C558.811 100.597 560.624 102.41 562.861 102.41Z" fill="#F18818"/>
<path d="M569.97 121.26C572.207 121.26 574.02 119.446 574.02 117.21C574.02 114.973 572.207 113.16 569.97 113.16C567.733 113.16 565.92 114.973 565.92 117.21C565.92 119.446 567.733 121.26 569.97 121.26Z" fill="#F18818"/>
<path d="M543.681 101.04C545.918 101.04 547.731 99.2267 547.731 96.9899C547.731 94.7532 545.918 92.9399 543.681 92.9399C541.444 92.9399 539.631 94.7532 539.631 96.9899C539.631 99.2267 541.444 101.04 543.681 101.04Z" fill="#F18818"/>
<path d="M538.771 84.2299C541.008 84.2299 542.821 82.4166 542.821 80.1799C542.821 77.9431 541.008 76.1299 538.771 76.1299C536.534 76.1299 534.721 77.9431 534.721 80.1799C534.721 82.4166 536.534 84.2299 538.771 84.2299Z" fill="#F18818"/>
<path d="M641.98 195.33C644.216 195.33 646.03 193.517 646.03 191.28C646.03 189.043 644.216 187.23 641.98 187.23C639.743 187.23 637.93 189.043 637.93 191.28C637.93 193.517 639.743 195.33 641.98 195.33Z" fill="#F18818"/>
<path d="M622.431 186.83C624.668 186.83 626.481 185.017 626.481 182.78C626.481 180.543 624.668 178.73 622.431 178.73C620.194 178.73 618.381 180.543 618.381 182.78C618.381 185.017 620.194 186.83 622.431 186.83Z" fill="#F18818"/>
<path d="M521.781 91.5097C524.017 91.5097 525.831 89.6964 525.831 87.4597C525.831 85.2229 524.017 83.4097 521.781 83.4097C519.544 83.4097 517.73 85.2229 517.73 87.4597C517.73 89.6964 519.544 91.5097 521.781 91.5097Z" fill="#F18818"/>
<path d="M508.9 74.5297C511.136 74.5297 512.95 72.7164 512.95 70.4797C512.95 68.2429 511.136 66.4297 508.9 66.4297C506.663 66.4297 504.85 68.2429 504.85 70.4797C504.85 72.7164 506.663 74.5297 508.9 74.5297Z" fill="#F18818"/>
<path d="M224.367 83.5452C265.014 82.5978 297.753 72.7573 297.492 61.5659C297.231 50.3744 264.069 42.07 223.422 43.0173C182.775 43.9647 150.036 53.8051 150.297 64.9966C150.557 76.188 183.72 84.4925 224.367 83.5452Z" stroke="#3BAF73" stroke-width="14" stroke-miterlimit="10" stroke-linecap="round" stroke-linejoin="round"/>
<path d="M150.299 64.9998L153.919 220.48L154.079 227.3C154.389 240.65 187.589 250.7 228.239 249.75C268.889 248.8 301.589 237.21 301.269 223.87L301.129 217.71L297.489 61.5698C297.489 61.5698 297.959 81.8298 224.359 83.5398C150.759 85.2498 150.299 64.9998 150.299 64.9998Z" stroke="#3BAF73" stroke-width="14" stroke-miterlimit="10" stroke-linecap="round" stroke-linejoin="round"/>
<path d="M151.24 105.57L153.26 192.29L153.35 196.1C153.52 203.55 186.61 208.81 227.26 207.87C267.91 206.92 300.72 200.12 300.54 192.67L300.46 189.23L298.43 102.14C298.43 102.14 298.69 113.44 225.1 115.15C151.51 116.87 151.24 105.57 151.24 105.57Z" fill="#3BAF73"/>
<path d="M145.979 60.11C147.149 56.4 146.719 51.12 141.069 46.1C137.709 43.11 131.669 42.25 126.419 39.13C122.219 36.64 118.779 31.6799 113.589 29.2499C109.009 27.1099 102.999 27.5899 97.7995 25.5899C92.9895 23.7399 88.8795 19.3399 83.6495 17.6799C78.4295 16.0299 72.5195 17.2599 67.5295 16.0099C62.1295 14.6599 57.4795 10.7999 52.4995 9.92994C46.8595 8.92994 41.1895 11.0199 36.3195 10.6399C30.2395 10.1699 24.7895 7.39995 20.3295 7.91995C12.8295 8.77995 9.42946 12.8599 8.25946 16.5599C7.08946 20.2699 7.51946 25.55 13.1695 30.57C16.5295 33.56 22.5695 34.4199 27.8195 37.5399C32.0195 40.0299 35.4595 44.9899 40.6495 47.4199C45.2295 49.5599 51.2395 49.08 56.4395 51.08C61.2495 52.93 65.3595 57.33 70.5895 58.99C75.8095 60.64 81.7195 59.41 86.7095 60.66C92.1095 62.01 96.7595 65.87 101.739 66.74C107.379 67.74 113.049 65.6499 117.919 66.0299C123.999 66.4999 129.449 69.27 133.909 68.75C141.409 67.89 144.809 63.82 145.979 60.11Z" stroke="#3BAF73" stroke-width="14" stroke-miterlimit="10" stroke-linecap="round" stroke-linejoin="round"/>
</svg>
