<svg width="634" height="576" viewBox="0 0 634 576" fill="none" xmlns="http://www.w3.org/2000/svg">
<path d="M537.309 237.64C531.579 236.78 526.099 234.8 521.099 231.61C497.439 216.53 493.669 180.12 512.679 150.3C527.479 127.08 551.729 114.7 572.909 117.47" stroke="#89BD24" stroke-width="14" stroke-miterlimit="10" stroke-linecap="round" stroke-linejoin="round"/>
<path d="M475.48 452.25C522.63 457.61 552.36 473.49 554.42 495.15C557.43 526.83 492.91 558.88 410.3 566.75C327.69 574.61 258.27 555.3 255.26 523.62C253.21 502.03 279.14 480.27 324.16 466.11" stroke="#89BD24" stroke-width="14" stroke-miterlimit="10" stroke-linecap="round" stroke-linejoin="round"/>
<path d="M251.109 60.6601C306.929 56.5901 361.459 74.7201 388.779 107.29C391.849 104.68 395.469 102.49 399.539 100.85C416.509 94.0601 434.789 99.8101 440.339 113.7C445.899 127.58 436.639 144.36 419.669 151.15C416.349 152.48 412.979 153.32 409.679 153.7C419.089 217.47 363.449 291.24 274.989 326.64C186.649 362 95.6091 347.07 58.3391 294.61C55.9191 296.32 53.1791 297.82 50.2391 299C33.2691 305.79 14.9891 300.04 9.43909 286.15C3.87909 272.27 13.1391 255.49 30.1091 248.7C33.8391 247.21 37.6091 246.34 41.2891 246.01C38.0491 191.92 79.4991 132.31 146.719 95.5501L169.829 82.2401C170.299 80.6301 191.509 30.9301 249.229 7.83008C249.229 7.84008 225.889 39.6801 251.109 60.6601Z" stroke="#89BD24" stroke-width="14" stroke-miterlimit="10" stroke-linecap="round" stroke-linejoin="round"/>
<path d="M100.988 216.89C100.988 216.89 146.588 323.25 256.618 279.22C366.648 235.19 315.808 130.92 315.808 130.92" stroke="#89BD24" stroke-width="14" stroke-miterlimit="10" stroke-linecap="round" stroke-linejoin="round"/>
<path d="M215.539 205.07L154.939 229.32C154.179 229.63 153.309 229.25 152.999 228.49L128.749 167.89C128.439 167.13 128.819 166.26 129.579 165.95L190.179 141.7C190.939 141.39 191.809 141.77 192.119 142.53L216.369 203.13C216.679 203.89 216.309 204.76 215.539 205.07Z" fill="#89BD24"/>
<path d="M296.6 172.63L235.98 196.89C235.22 197.19 234.36 196.82 234.05 196.06L209.79 135.44C209.49 134.68 209.86 133.82 210.62 133.51L271.24 109.25C272 108.95 272.86 109.32 273.17 110.08L297.43 170.7C297.73 171.46 297.36 172.32 296.6 172.63Z" fill="#89BD24"/>
<path d="M186.219 147.86L216.679 135.67" stroke="#89BD24" stroke-width="8" stroke-miterlimit="10" stroke-linecap="round" stroke-linejoin="round"/>
<path d="M553.63 296.22C553.63 296.22 612.5 317.24 602.12 271.54C591.73 225.84 620 206.53 624.93 178.39C629.86 150.25 620.27 131.26 616.57 115.65C612.87 100.04 625.27 74.6201 625.27 74.6201L596.64 67.8701C596.64 67.8701 596.64 96.1601 586.47 108.56C576.3 120.96 559.36 133.83 551.45 161.28C543.54 188.74 560.49 218.48 531.12 255C501.75 291.52 563.88 298.44 563.88 298.44L553.63 296.22Z" stroke="#E62043" stroke-width="14" stroke-miterlimit="10" stroke-linecap="round" stroke-linejoin="round"/>
<path d="M558.649 143.54L626.299 156.28L611.769 210.18L549.379 198.95L558.649 143.54Z" stroke="#E62043" stroke-width="14" stroke-miterlimit="10" stroke-linecap="round" stroke-linejoin="round"/>
<path d="M496.289 349.92L471.939 379.67" stroke="#88BD28" stroke-width="14" stroke-miterlimit="10" stroke-linecap="round"/>
<path d="M525.419 384.71L491.52 402.86" stroke="#88BD28" stroke-width="14" stroke-miterlimit="10" stroke-linecap="round"/>
<path d="M240.709 442.99L279.159 443.19" stroke="#88BD28" stroke-width="14" stroke-miterlimit="10" stroke-linecap="round"/>
<path d="M249.42 398.46L284.85 413.37" stroke="#88BD28" stroke-width="14" stroke-miterlimit="10" stroke-linecap="round"/>
<path d="M470.629 432.24V493.26C404.439 542.06 330.229 493.26 330.229 493.26V432.24" stroke="#E62043" stroke-width="14" stroke-miterlimit="10" stroke-linecap="round" stroke-linejoin="round"/>
<path d="M400.419 453.74C439.189 453.74 470.619 444.177 470.619 432.38C470.619 420.583 439.189 411.02 400.419 411.02C361.648 411.02 330.219 420.583 330.219 432.38C330.219 444.177 361.648 453.74 400.419 453.74Z" stroke="#E51844" stroke-width="14" stroke-miterlimit="10" stroke-linecap="round" stroke-linejoin="round"/>
<path d="M346.988 460.63V488.46" stroke="#E51844" stroke-width="9" stroke-miterlimit="10" stroke-linecap="round" stroke-linejoin="round"/>
<path d="M366.738 467.17V495" stroke="#E51844" stroke-width="9" stroke-miterlimit="10" stroke-linecap="round" stroke-linejoin="round"/>
<path d="M388.75 471.73V499.56" stroke="#E51844" stroke-width="9" stroke-miterlimit="10" stroke-linecap="round" stroke-linejoin="round"/>
<path d="M411.238 471.73V499.56" stroke="#E51844" stroke-width="9" stroke-miterlimit="10" stroke-linecap="round" stroke-linejoin="round"/>
<path d="M432.559 467.17V495" stroke="#E51844" stroke-width="9" stroke-miterlimit="10" stroke-linecap="round" stroke-linejoin="round"/>
<path d="M452.699 461.8V489.63" stroke="#E51844" stroke-width="9" stroke-miterlimit="10" stroke-linecap="round" stroke-linejoin="round"/>
</svg>
