<svg width="230" height="230" viewBox="0 0 230 230" fill="none" xmlns="http://www.w3.org/2000/svg">
<path d="M114.585 141.667L32.3827 224.167C28.231 228.333 24.0794 230 19.0975 230C14.1155 230 9.9639 228.333 5.81227 224.167C1.66065 220.833 0 215.833 0 210.833C0 205.833 1.66065 201.667 5.81227 197.5L88.0144 115L5.81227 32.5C2.49097 29.1667 0.830328 24.1667 0.830328 19.1667C0.830328 14.1667 2.49097 9.16667 5.81227 5.83333C9.13357 2.5 13.2852 0.833337 19.0975 0.833337C24.9097 0.833337 29.0614 2.5 32.3827 5.83333L114.585 88.3333L197.617 5C200.939 1.66667 205.921 0 210.902 0C215.884 0 220.866 1.66667 224.188 5C227.509 9.16667 230 13.3333 230 18.3333C230 23.3333 228.339 27.5 224.188 31.6667L141.155 114.167L223.357 196.667C227.509 200.833 229.17 205 229.17 210C229.17 215 227.509 219.167 223.357 223.333C220.036 227.5 215.054 229.167 210.072 229.167C205.09 229.167 200.939 227.5 197.617 223.333L114.585 141.667Z" fill="white"/>
</svg>
