<svg width="404" height="343" viewBox="0 0 404 343" fill="none" xmlns="http://www.w3.org/2000/svg">
<path d="M6.92969 336.2V304.94H46.9397V178.96L112.93 177.34V41.02L161.69 39.77V6.02002H232.68L235.42 37.26L273.75 38.37L276.09 96.98L356.25 99.08V305.98L397.99 307.72V336.2H6.92969Z" stroke="#E62244" stroke-width="12" stroke-miterlimit="10" stroke-linecap="round" stroke-linejoin="round"/>
<path d="M183.639 219.18H156.129V246.69H183.639V219.18Z" stroke="#E62244" stroke-width="8" stroke-miterlimit="10" stroke-linejoin="round"/>
<path d="M116.26 219.18H88.75V246.69H116.26V219.18Z" stroke="#E62244" stroke-width="8" stroke-miterlimit="10" stroke-linejoin="round"/>
<path d="M320.86 219.18H293.35V246.69H320.86V219.18Z" stroke="#E62244" stroke-width="8" stroke-miterlimit="10" stroke-linejoin="round"/>
<path d="M255.219 219.18H227.709V246.69H255.219V219.18Z" stroke="#E62244" stroke-width="8" stroke-miterlimit="10" stroke-linejoin="round"/>
<path d="M246.43 78.5601H218.92V106.07H246.43V78.5601Z" stroke="#E62244" stroke-width="8" stroke-miterlimit="10" stroke-linejoin="round"/>
<path d="M170.369 99.3901H142.859V126.9H170.369V99.3901Z" stroke="#E62244" stroke-width="8" stroke-miterlimit="10" stroke-linejoin="round"/>
<path d="M331.28 134.13H303.77V161.64H331.28V134.13Z" stroke="#E62244" stroke-width="8" stroke-miterlimit="10" stroke-linejoin="round"/>
<path d="M255.219 154.96H227.709V182.47H255.219V154.96Z" stroke="#E62244" stroke-width="8" stroke-miterlimit="10" stroke-linejoin="round"/>
<path d="M183.639 269.29H156.129V296.8H183.639V269.29Z" stroke="#E62244" stroke-width="8" stroke-miterlimit="10" stroke-linejoin="round"/>
<path d="M116.26 269.29H88.75V296.8H116.26V269.29Z" stroke="#E62244" stroke-width="8" stroke-miterlimit="10" stroke-linejoin="round"/>
<path d="M320.86 269.29H293.35V296.8H320.86V269.29Z" stroke="#E62244" stroke-width="8" stroke-miterlimit="10" stroke-linejoin="round"/>
<path d="M255.219 269.29H227.709V296.8H255.219V269.29Z" stroke="#E62244" stroke-width="8" stroke-miterlimit="10" stroke-linejoin="round"/>
</svg>
