<svg width="384" height="339" viewBox="0 0 384 339" fill="none" xmlns="http://www.w3.org/2000/svg">
<path d="M6.7207 332.96V300.44H48.3507V151.3L113.391 126.13V51.98L191.431 6.45996L268.691 50.61V123.82L334.021 151.3V301.52L377.451 303.33V332.96H6.7207Z" stroke="#3BAF73" stroke-width="12" stroke-miterlimit="10" stroke-linecap="round" stroke-linejoin="round"/>
<path d="M218.1 278.32H169.9V329.12H218.1V278.32Z" stroke="#3BAF73" stroke-width="9" stroke-miterlimit="10" stroke-linejoin="round"/>
<path d="M178.431 164.73H149.811V193.35H178.431V164.73Z" stroke="#3BAF73" stroke-width="8" stroke-miterlimit="10" stroke-linejoin="round"/>
<path d="M120.981 164.73H92.3613V193.35H120.981V164.73Z" stroke="#3BAF73" stroke-width="8" stroke-miterlimit="10" stroke-linejoin="round"/>
<path d="M295.79 164.73H267.17V193.35H295.79V164.73Z" stroke="#3BAF73" stroke-width="8" stroke-miterlimit="10" stroke-linejoin="round"/>
<path d="M238.341 164.73H209.721V193.35H238.341V164.73Z" stroke="#3BAF73" stroke-width="8" stroke-miterlimit="10" stroke-linejoin="round"/>
<path d="M232.411 73.9399H203.791V102.56H232.411V73.9399Z" stroke="#3BAF73" stroke-width="8" stroke-miterlimit="10" stroke-linejoin="round"/>
<path d="M180.38 73.9399H151.76V102.56H180.38V73.9399Z" stroke="#3BAF73" stroke-width="8" stroke-miterlimit="10" stroke-linejoin="round"/>
<path d="M178.431 216.87H149.811V245.49H178.431V216.87Z" stroke="#3BAF73" stroke-width="8" stroke-miterlimit="10" stroke-linejoin="round"/>
<path d="M120.981 216.87H92.3613V245.49H120.981V216.87Z" stroke="#3BAF73" stroke-width="8" stroke-miterlimit="10" stroke-linejoin="round"/>
<path d="M295.79 216.87H267.17V245.49H295.79V216.87Z" stroke="#3BAF73" stroke-width="8" stroke-miterlimit="10" stroke-linejoin="round"/>
<path d="M238.341 216.87H209.721V245.49H238.341V216.87Z" stroke="#3BAF73" stroke-width="8" stroke-miterlimit="10" stroke-linejoin="round"/>
</svg>
