<svg width="238" height="193" viewBox="0 0 238 193" fill="none" xmlns="http://www.w3.org/2000/svg">
<path d="M23.1509 137.63C15.7009 132.97 7.90094 127.95 5.34094 118.88C4.17094 114.73 4.81094 110.19 7.49094 106.82C12.6209 100.36 21.3509 101.84 28.7009 103.61C26.0309 94.3699 23.3809 84.2699 27.9309 75.4599C30.7409 70.0199 36.4709 66.5299 42.5409 67.3299C51.5409 68.5199 51.4809 77.9599 57.1109 82.0899C61.3609 85.2099 67.3709 84.2199 72.2009 82.1199C78.5309 79.3699 84.3209 74.9299 91.8209 76.0799C95.0409 76.5699 97.8809 78.6799 98.9409 81.7699C101.211 88.3299 94.3309 93.1199 91.8709 99.0799C89.6909 104.37 91.9909 110.62 96.2809 114.27C101.891 119.05 103.211 127.21 99.9109 133.8C98.1209 137.37 95.9109 140.73 93.3209 143.77" stroke="#89BD24" stroke-width="9" stroke-miterlimit="10" stroke-linecap="round" stroke-linejoin="round"/>
<path d="M111.171 96.68C107.291 96.59 94.391 107.38 93.541 111.17" stroke="#89BD24" stroke-width="9" stroke-miterlimit="10" stroke-linecap="round" stroke-linejoin="round"/>
<path d="M68.8806 110.06C68.3506 113.79 54.7306 113.28 49.0706 115.68C38.4106 120.19 27.7806 126.26 28.3806 137.82C28.6306 142.55 15.3706 148.48 15.5806 150.81C16.7706 163.56 25.2506 156.65 31.5806 165.01C33.1906 167.14 25.0006 173.95 32.3606 183.76C38.5206 191.97 61.3806 181.73 63.2806 168.79C64.3906 161.27 64.9006 157.82 65.6906 157.17C76.0406 148.67 73.9106 178.63 83.4506 179.08C90.1306 179.39 95.2106 172.33 101.881 171.9C104.191 171.75 106.481 172.43 108.791 172.51C115.631 172.75 121.231 167.82 124.601 161.62" stroke="#89BD24" stroke-width="9" stroke-miterlimit="10" stroke-linecap="round" stroke-linejoin="round"/>
<path d="M53.1816 77.2999C54.9916 70.8899 65.2616 59.9799 70.9816 56.5699C73.3616 55.1499 76.1616 54.0799 78.8716 54.6499C82.4316 55.3999 84.8616 58.6899 88.1716 60.1899C93.9916 62.8299 100.582 59.4299 106.372 56.7099" stroke="#89BD24" stroke-width="9" stroke-miterlimit="10" stroke-linecap="round" stroke-linejoin="round"/>
<path d="M232.571 156.2C232.571 156.2 197.821 71.94 210.141 4.97998L110.821 37.62C110.821 37.62 100.791 109.07 134.551 188.41L232.571 156.2Z" stroke="#89BD24" stroke-width="9" stroke-miterlimit="10" stroke-linecap="round" stroke-linejoin="round"/>
<path d="M180.75 44.15C182.6 54.25 174.65 55.7 176.5 65.8C178.35 75.9 186.29 74.44 188.14 84.54C189.99 94.64 182.04 96.09 183.89 106.19C185.74 116.29 193.68 114.83 195.53 124.93C197.38 135.03 189.43 136.48 191.28 146.58" stroke="#89BD24" stroke-width="9" stroke-miterlimit="10" stroke-linecap="round" stroke-linejoin="round"/>
<path d="M161.301 47.71C163.151 57.81 155.201 59.26 157.051 69.36C158.901 79.46 166.841 78 168.691 88.1C170.541 98.2 162.591 99.65 164.441 109.75C166.291 119.85 174.231 118.39 176.081 128.49C177.931 138.59 169.981 140.04 171.831 150.14" stroke="#89BD24" stroke-width="9" stroke-miterlimit="10" stroke-linecap="round" stroke-linejoin="round"/>
<path d="M141.291 51.37C143.141 61.47 135.191 62.92 137.041 73.02C138.891 83.12 146.831 81.66 148.681 91.76C150.531 101.86 142.581 103.31 144.431 113.41C146.281 123.51 154.221 122.05 156.071 132.15C157.921 142.25 149.971 143.7 151.821 153.8" stroke="#89BD24" stroke-width="9" stroke-miterlimit="10" stroke-linecap="round" stroke-linejoin="round"/>
</svg>
