<svg width="379" height="232" viewBox="0 0 379 232" fill="none" xmlns="http://www.w3.org/2000/svg">
<path d="M304.22 156.22C308.68 155.85 317.21 156.65 322.05 156.65C351.28 156.65 374.98 163.9 374.98 172.85C374.98 181.8 351.28 189.05 322.05 189.05C317.28 189.05 312.65 188.86 308.25 188.49" stroke="#F18818" stroke-width="7.8425" stroke-miterlimit="10" stroke-linecap="round" stroke-linejoin="round"/>
<path d="M276.21 180.96C271.7 178.58 269.12 175.81 269.12 172.85C269.12 170.6 270.62 168.46 273.32 166.52" stroke="#F18818" stroke-width="7.8425" stroke-miterlimit="10" stroke-linecap="round" stroke-linejoin="round"/>
<path d="M323.98 140.45C353.21 140.45 374.99 147.7 374.99 156.65C374.99 165.6 351.29 172.85 322.06 172.85C302.47 172.85 285.37 169.59 276.22 164.75" stroke="#F18818" stroke-width="7.8425" stroke-miterlimit="10" stroke-linecap="round" stroke-linejoin="round"/>
<path d="M367.9 180.95C372.41 183.33 374.99 186.1 374.99 189.06C374.99 198.01 351.29 205.26 322.06 205.26C313.28 205.26 305 204.61 297.71 203.45" stroke="#F18818" stroke-width="7.8425" stroke-miterlimit="10" stroke-linecap="round" stroke-linejoin="round"/>
<path d="M279.1 198.53C272.82 195.87 269.12 193.6 269.12 190.06C269.12 186.7 271.49 184.59 277.2 182" stroke="#F18818" stroke-width="7.8425" stroke-miterlimit="10" stroke-linecap="round" stroke-linejoin="round"/>
<path d="M365.95 199.73C371.66 202.32 374.99 205.43 374.99 208.79C374.99 217.74 351.29 224.99 322.06 224.99C292.83 224.99 269.13 217.74 269.13 208.79C269.13 205.61 272.12 202.65 277.28 200.15" stroke="#F18818" stroke-width="7.8425" stroke-miterlimit="10" stroke-linecap="round" stroke-linejoin="round"/>
<path d="M247.45 162.51V207.52C193.23 249.12 132.43 207.52 132.43 207.52V159.51" stroke="#E62043" stroke-width="7.8425" stroke-miterlimit="10" stroke-linecap="round" stroke-linejoin="round"/>
<path d="M245.66 162.16C239.31 170.03 216.77 173.85 189.94 173.85C160.94 173.85 136.95 168.05 133 159.21" stroke="#E51844" stroke-width="7.8425" stroke-miterlimit="10" stroke-linecap="round" stroke-linejoin="round"/>
<path d="M169.479 138.85C176.359 137.93 181.999 137.42 189.939 137.42C197.049 137.42 200.009 137.83 206.289 138.57" stroke="#E51844" stroke-width="7.8425" stroke-miterlimit="10" stroke-linecap="round" stroke-linejoin="round"/>
<path d="M146.16 179.71V203.43" stroke="#E51844" stroke-width="4.9015" stroke-miterlimit="10" stroke-linecap="round" stroke-linejoin="round"/>
<path d="M162.35 185.28V209" stroke="#E51844" stroke-width="4.9015" stroke-miterlimit="10" stroke-linecap="round" stroke-linejoin="round"/>
<path d="M180.38 189.17V212.9" stroke="#E51844" stroke-width="4.9015" stroke-miterlimit="10" stroke-linecap="round" stroke-linejoin="round"/>
<path d="M198.8 189.17V212.9" stroke="#E51844" stroke-width="4.9015" stroke-miterlimit="10" stroke-linecap="round" stroke-linejoin="round"/>
<path d="M216.26 185.28V209" stroke="#E51844" stroke-width="4.9015" stroke-miterlimit="10" stroke-linecap="round" stroke-linejoin="round"/>
<path d="M232.76 180.71V204.43" stroke="#E51844" stroke-width="4.9015" stroke-miterlimit="10" stroke-linecap="round" stroke-linejoin="round"/>
<path d="M322.749 93.2202V145.23C268.529 186.83 207.729 145.23 207.729 145.23V93.2202" stroke="#3BAF73" stroke-width="7.8425" stroke-miterlimit="10" stroke-linecap="round" stroke-linejoin="round"/>
<path d="M232.759 77.3101C241.999 75.3001 253.189 75.1301 265.239 75.1301C296.999 75.1301 322.749 83.2801 322.749 93.3401C322.749 103.4 296.999 111.55 265.239 111.55C233.479 111.55 207.729 103.4 207.729 93.3401C207.729 91.7801 208.35 90.2701 209.52 88.8201" stroke="#3BAF73" stroke-width="7.8425" stroke-miterlimit="10" stroke-linecap="round" stroke-linejoin="round"/>
<path d="M221.47 117.42V141.14" stroke="#3BAF73" stroke-width="5.8819" stroke-miterlimit="10" stroke-linecap="round" stroke-linejoin="round"/>
<path d="M237.649 122.99V146.71" stroke="#3BAF73" stroke-width="5.8819" stroke-miterlimit="10" stroke-linecap="round" stroke-linejoin="round"/>
<path d="M255.68 126.88V150.6" stroke="#3BAF73" stroke-width="5.8819" stroke-miterlimit="10" stroke-linecap="round" stroke-linejoin="round"/>
<path d="M274.1 126.88V150.6" stroke="#3BAF73" stroke-width="5.8819" stroke-miterlimit="10" stroke-linecap="round" stroke-linejoin="round"/>
<path d="M291.569 122.99V146.71" stroke="#3BAF73" stroke-width="5.8819" stroke-miterlimit="10" stroke-linecap="round" stroke-linejoin="round"/>
<path d="M308.069 118.42V142.14" stroke="#3BAF73" stroke-width="5.8819" stroke-miterlimit="10" stroke-linecap="round" stroke-linejoin="round"/>
<path d="M11.9796 184.04C7.46965 181.66 4.88965 178.89 4.88965 175.93C4.88965 166.98 28.5896 159.73 57.8196 159.73C87.0496 159.73 110.75 166.98 110.75 175.93C110.75 184.88 87.0496 192.13 57.8196 192.13C53.0496 192.13 48.4196 191.94 44.0196 191.57" stroke="#3BAF73" stroke-width="7.8425" stroke-miterlimit="10" stroke-linecap="round" stroke-linejoin="round"/>
<path d="M110.76 161.73C110.76 170.68 87.0602 175.93 57.8302 175.93C38.2402 175.93 21.1402 172.67 11.9902 167.83" stroke="#3BAF73" stroke-width="7.8425" stroke-miterlimit="10" stroke-linecap="round" stroke-linejoin="round"/>
<path d="M11.9796 167.84C7.46965 165.46 4.88965 162.69 4.88965 159.73C4.88965 151.25 26.1596 144.3 53.2496 143.59" stroke="#3BAF73" stroke-width="7.8425" stroke-miterlimit="10" stroke-linecap="round" stroke-linejoin="round"/>
<path d="M103.66 184.03C108.17 186.41 110.75 189.18 110.75 192.14C110.75 201.09 87.0497 208.34 57.8197 208.34C49.0397 208.34 40.7597 207.69 33.4697 206.53" stroke="#3BAF73" stroke-width="7.8425" stroke-miterlimit="10" stroke-linecap="round" stroke-linejoin="round"/>
<path d="M14.8599 201.61C8.57988 198.95 4.87988 196.68 4.87988 193.14C4.87988 189.78 7.24988 187.67 12.9599 185.08" stroke="#3BAF73" stroke-width="7.8425" stroke-miterlimit="10" stroke-linecap="round" stroke-linejoin="round"/>
<path d="M101.719 202.82C107.429 205.41 110.759 208.52 110.759 211.88C110.759 220.83 87.0594 228.08 57.8294 228.08C28.5994 228.08 4.89941 220.83 4.89941 211.88C4.89941 208.7 7.88941 205.74 13.0494 203.24" stroke="#3BAF73" stroke-width="7.8425" stroke-miterlimit="10" stroke-linecap="round" stroke-linejoin="round"/>
<path d="M168.26 89.6501V141.66C114.04 183.26 53.2402 141.66 53.2402 141.66V89.6501" stroke="#F18818" stroke-width="7.8425" stroke-miterlimit="10" stroke-linecap="round" stroke-linejoin="round"/>
<path d="M168.26 89.7701C168.26 99.8301 142.51 107.98 110.75 107.98C78.9902 107.98 53.2402 99.8301 53.2402 89.7701C53.2402 79.7101 78.9902 71.5601 110.75 71.5601C116.78 71.5601 120.67 71.8501 126.14 72.4001" stroke="#F18818" stroke-width="7.8425" stroke-miterlimit="10" stroke-linecap="round" stroke-linejoin="round"/>
<path d="M66.9805 113.85V137.58" stroke="#F18818" stroke-width="5.8819" stroke-miterlimit="10" stroke-linecap="round" stroke-linejoin="round"/>
<path d="M83.1602 119.42V143.15" stroke="#F18818" stroke-width="5.8819" stroke-miterlimit="10" stroke-linecap="round" stroke-linejoin="round"/>
<path d="M101.19 123.31V147.04" stroke="#F18818" stroke-width="5.8819" stroke-miterlimit="10" stroke-linecap="round" stroke-linejoin="round"/>
<path d="M119.62 123.31V147.04" stroke="#F18818" stroke-width="5.8819" stroke-miterlimit="10" stroke-linecap="round" stroke-linejoin="round"/>
<path d="M137.08 119.42V143.15" stroke="#F18818" stroke-width="5.8819" stroke-miterlimit="10" stroke-linecap="round" stroke-linejoin="round"/>
<path d="M153.58 114.85V138.58" stroke="#F18818" stroke-width="5.8819" stroke-miterlimit="10" stroke-linecap="round" stroke-linejoin="round"/>
<path d="M134.529 44.57C130.019 42.19 127.439 39.42 127.439 36.46C127.439 27.51 151.139 20.26 180.369 20.26C209.599 20.26 233.299 27.51 233.299 36.46C233.299 45.41 209.599 52.66 180.369 52.66C175.599 52.66 170.969 52.47 166.569 52.1" stroke="#E51844" stroke-width="7.8425" stroke-miterlimit="10" stroke-linecap="round"/>
<path d="M134.529 28.3701C130.019 25.9901 127.439 23.2201 127.439 20.2601C127.439 11.3101 151.139 4.06006 180.369 4.06006C209.599 4.06006 233.299 11.3101 233.299 20.2601C233.299 29.2101 209.599 36.4601 180.369 36.4601C160.789 36.4601 143.689 33.2101 134.529 28.3701Z" stroke="#E51844" stroke-width="7.8425" stroke-miterlimit="10" stroke-linecap="round"/>
<path d="M226.219 44.5601C230.729 46.9401 233.309 49.7101 233.309 52.6701C233.309 61.6201 209.609 68.8701 180.379 68.8701C171.599 68.8701 163.319 68.2201 156.029 67.0601" stroke="#E51844" stroke-width="7.8425" stroke-miterlimit="10" stroke-linecap="round"/>
<path d="M137.419 62.1401C131.139 59.4801 127.439 57.2101 127.439 53.6701C127.439 50.3101 129.809 48.2001 135.519 45.6101" stroke="#E51844" stroke-width="7.8425" stroke-miterlimit="10" stroke-linecap="round"/>
<path d="M224.269 63.3401C229.979 65.9301 233.309 69.0401 233.309 72.4001C233.309 81.3501 209.609 88.6001 180.379 88.6001C151.149 88.6001 127.449 81.3501 127.449 72.4001C127.449 69.2201 130.439 66.2601 135.599 63.7601" stroke="#E51844" stroke-width="7.8425" stroke-miterlimit="10" stroke-linecap="round"/>
</svg>
