<svg width="266" height="223" viewBox="0 0 266 223" fill="none" xmlns="http://www.w3.org/2000/svg">
<path d="M54.8094 196.98H44.7794C41.9694 196.98 39.6895 194.7 39.6895 191.89V129.24C39.6895 126.43 41.9694 124.15 44.7794 124.15H54.8094C57.6194 124.15 59.8995 126.43 59.8995 129.24V191.89C59.8995 194.7 57.6194 196.98 54.8094 196.98Z" stroke="#8ABE28" stroke-width="7.6622" stroke-miterlimit="10" stroke-linecap="round"/>
<path d="M70.9504 150.16H59.9004V173.64H70.9504V150.16Z" stroke="#8ABE28" stroke-width="7.6622" stroke-miterlimit="10" stroke-linecap="round"/>
<path d="M92.1192 203.45L100.789 215.49C102.079 217.27 104.289 218.35 106.669 218.35H173.499C176.259 218.35 178.789 216.97 180.039 214.77L190.099 197.07C190.659 196.09 190.949 195 190.949 193.89V121.47C190.949 117.98 187.769 115.14 183.839 115.14H110.749C108.539 115.14 106.459 116.03 105.079 117.57L101.039 122.08C99.8692 123.39 98.0992 124.15 96.2192 124.15H77.4192C73.8392 124.15 70.9492 126.73 70.9492 129.91V196.7C70.9492 199.81 73.7792 202.32 77.2692 202.32H127.439" stroke="#8ABE28" stroke-width="7.6622" stroke-miterlimit="10" stroke-linecap="round"/>
<path d="M155.279 101.02H141.699V113.74H155.279V101.02Z" stroke="#8ABE28" stroke-width="7.6622" stroke-miterlimit="10" stroke-linecap="round"/>
<path d="M203.279 151.99H190.959V171.68H203.279V151.99Z" stroke="#8ABE28" stroke-width="7.6622" stroke-miterlimit="10" stroke-linecap="round"/>
<path d="M119.599 101.02H185.069C187.969 101.02 190.009 98.9002 189.099 96.8502L185.989 89.8802C184.999 87.6702 182.219 86.1702 179.089 86.1702H125.049C122.089 86.1702 119.449 87.5502 118.449 89.6302L115.209 96.3502C114.109 98.6302 116.369 101.02 119.599 101.02Z" stroke="#8ABE28" stroke-width="7.6622" stroke-miterlimit="10" stroke-linecap="round"/>
<path d="M216.83 190.79H207.25C205.45 190.79 203.99 189.33 203.99 187.53V135.57C203.99 133.77 205.45 132.31 207.25 132.31H216.83C218.63 132.31 220.09 133.77 220.09 135.57V187.53C220.1 189.33 218.64 190.79 216.83 190.79Z" stroke="#8ABE28" stroke-width="7.6622" stroke-miterlimit="10" stroke-linecap="round"/>
<path d="M152.749 151.98C158.852 151.98 163.799 147.575 163.799 142.14C163.799 136.706 158.852 132.3 152.749 132.3C146.646 132.3 141.699 136.706 141.699 142.14C141.699 147.575 146.646 151.98 152.749 151.98Z" stroke="#8ABE28" stroke-width="7.6622" stroke-miterlimit="10" stroke-linecap="round"/>
<path d="M104.18 183.66C113.569 183.66 121.18 176.886 121.18 168.53C121.18 160.174 113.569 153.4 104.18 153.4C94.7908 153.4 87.1797 160.174 87.1797 168.53C87.1797 176.886 94.7908 183.66 104.18 183.66Z" stroke="#8ABE28" stroke-width="7.6622" stroke-miterlimit="10" stroke-linecap="round"/>
<path d="M155.28 183.76C159.991 183.76 163.81 180.362 163.81 176.17C163.81 171.978 159.991 168.58 155.28 168.58C150.569 168.58 146.75 171.978 146.75 176.17C146.75 180.362 150.569 183.76 155.28 183.76Z" stroke="#8ABE28" stroke-width="7.6622" stroke-miterlimit="10" stroke-linecap="round"/>
<path d="M104.119 172.97C106.842 172.97 109.049 171.005 109.049 168.58C109.049 166.156 106.842 164.19 104.119 164.19C101.397 164.19 99.1895 166.156 99.1895 168.58C99.1895 171.005 101.397 172.97 104.119 172.97Z" stroke="#8ABE28" stroke-width="7.6622" stroke-miterlimit="10" stroke-linecap="round"/>
<path d="M141.729 135.43L95.7289 155.36C80.4989 165.76 87.0689 183.76 104.119 183.76H155.279C161.299 183.76 163.809 178.99 163.809 173.64V145.13C163.799 135.39 157.489 128.08 141.729 135.43Z" stroke="#8ABE28" stroke-width="7.6622" stroke-miterlimit="10" stroke-linecap="round"/>
<path d="M41.6488 79.5601L63.2688 61.3501C63.2688 61.3501 85.4588 63.0801 83.4488 53.0201C80.5688 38.5701 63.8188 48.6401 63.8188 48.6401C63.8188 48.6401 71.4388 31.5701 56.0588 31.5701C45.0088 31.5701 50.4888 52.1901 50.4888 52.1901L31.5488 68.1901" stroke="#3BAF73" stroke-width="7" stroke-miterlimit="10" stroke-linecap="round" stroke-linejoin="round"/>
<path d="M35 69.8101L37.7 70.6201L36.02 71.8801L39.23 72.3101L38.35 74.2601L41.19 74.2901L40.54 75.7301" stroke="#3BAF73" stroke-width="2.3786" stroke-miterlimit="10" stroke-linecap="round" stroke-linejoin="round"/>
<path d="M25.5 74.9602L28.92 75.7302L26.38 78.3302L30.57 78.3402L28.94 81.9502L32.73 81.3502L31.52 84.0202" stroke="#3BAF73" stroke-width="2.3786" stroke-miterlimit="10" stroke-linecap="round" stroke-linejoin="round"/>
<path d="M24.3493 72.4001L5.73926 84.8902" stroke="#3BAF73" stroke-width="7" stroke-miterlimit="10" stroke-linecap="round" stroke-linejoin="round"/>
<path d="M31.5588 84.8901L15.0488 97.3901" stroke="#3BAF73" stroke-width="7" stroke-miterlimit="10" stroke-linecap="round" stroke-linejoin="round"/>
<path d="M94.5596 98.8001H9.30961C6.16961 98.8001 3.59961 96.2301 3.59961 93.0901V23.3001C3.59961 20.1601 6.16961 17.5901 9.30961 17.5901H94.5696C97.7096 17.5901 100.28 20.1601 100.28 23.3001V93.0901C100.27 96.2301 97.6996 98.8001 94.5596 98.8001Z" stroke="#3BAF73" stroke-width="7" stroke-miterlimit="10" stroke-linecap="round" stroke-linejoin="round"/>
<path d="M227.49 91.2201C246.582 91.2201 262.06 75.7426 262.06 56.6501C262.06 37.5576 246.582 22.0801 227.49 22.0801C208.397 22.0801 192.92 37.5576 192.92 56.6501C192.92 75.7426 208.397 91.2201 227.49 91.2201Z" stroke="#E51844" stroke-width="7" stroke-miterlimit="10" stroke-linecap="round"/>
<path d="M227.489 65.6801C232.476 65.6801 236.519 61.6372 236.519 56.6501C236.519 51.663 232.476 47.6201 227.489 47.6201C222.502 47.6201 218.459 51.663 218.459 56.6501C218.459 61.6372 222.502 65.6801 227.489 65.6801Z" stroke="#E51844" stroke-width="7" stroke-miterlimit="10" stroke-linecap="round"/>
<path d="M237.51 53.2001L260.81 47.1101" stroke="#E51844" stroke-width="7" stroke-miterlimit="10" stroke-linecap="round"/>
<path d="M193.949 64.5902L218.389 58.2002" stroke="#E51844" stroke-width="7" stroke-miterlimit="10" stroke-linecap="round"/>
<path d="M193.16 53.76L256.2 38.26" stroke="#E51844" stroke-width="7" stroke-miterlimit="10" stroke-linecap="round"/>
<path d="M195.9 43.2501L225.26 34.8101" stroke="#E51844" stroke-width="7" stroke-miterlimit="10" stroke-linecap="round"/>
<path d="M195.58 72.0901C183.03 74.9801 169.37 70.7201 160.79 59.9901C148.87 45.0801 151.29 23.3201 166.2 11.4001C181.11 -0.519912 202.87 1.90008 214.79 16.8101C216.4 18.8201 217.74 20.9501 218.83 23.1701" stroke="#E51844" stroke-width="7" stroke-miterlimit="10" stroke-linecap="round"/>
<path d="M187.79 47.4401C192.777 47.4401 196.82 43.3973 196.82 38.4101C196.82 33.423 192.777 29.3801 187.79 29.3801C182.803 29.3801 178.76 33.423 178.76 38.4101C178.76 43.3973 182.803 47.4401 187.79 47.4401Z" stroke="#E51844" stroke-width="7" stroke-miterlimit="10" stroke-linecap="round"/>
<path d="M154.25 46.3402L178.69 39.9502" stroke="#E51844" stroke-width="7" stroke-miterlimit="10" stroke-linecap="round"/>
<path d="M153.459 35.51L216.499 20.01" stroke="#E51844" stroke-width="7" stroke-miterlimit="10" stroke-linecap="round"/>
<path d="M156.199 25.0001L185.549 16.5601" stroke="#E51844" stroke-width="7" stroke-miterlimit="10" stroke-linecap="round"/>
</svg>
