<svg width="116" height="227" viewBox="0 0 116 227" fill="none" xmlns="http://www.w3.org/2000/svg">
<path d="M57.3008 104.599C86.0276 103.929 109.166 96.9769 108.982 89.0705C108.797 81.1642 85.3603 75.2976 56.6335 75.9671C27.9068 76.6367 4.76852 83.5888 4.9528 91.4951C5.13707 99.4015 28.5741 105.268 57.3008 104.599Z" stroke="#3BAF73" stroke-width="8.5729" stroke-miterlimit="10" stroke-linecap="round" stroke-linejoin="round"/>
<path d="M4.94922 91.5099L7.50922 201.4L7.61922 206.22C7.83922 215.65 31.3092 222.76 60.0392 222.09C88.7692 221.42 111.879 213.23 111.659 203.8L111.559 199.44L108.989 89.08C108.989 89.08 109.319 103.4 57.3092 104.61C5.29922 105.82 4.94922 91.5099 4.94922 91.5099Z" stroke="#3BAF73" stroke-width="8.5729" stroke-miterlimit="10" stroke-linecap="round" stroke-linejoin="round"/>
<path d="M5.61914 120.18L7.04914 181.48L7.10914 184.17C7.22914 189.43 30.6191 193.16 59.3491 192.49C88.0791 191.82 111.269 187.01 111.149 181.75L111.089 179.32L109.659 117.77C109.659 117.77 109.849 125.76 57.8291 126.97C5.80914 128.18 5.61914 120.18 5.61914 120.18Z" fill="#3BAF73"/>
<path d="M108.04 79.33C109.98 77.39 111.05 73.85 109.15 68.86C108.02 65.89 104.92 63.18 102.64 59.51C100.82 56.58 99.8997 52.61 97.4397 49.39C95.2697 46.56 91.6897 44.6 89.0897 41.65C86.6797 38.93 85.1897 35.14 82.4497 32.4C79.7097 29.66 75.9197 28.18 73.1997 25.76C70.2497 23.15 68.2997 19.58 65.4597 17.4C62.2497 14.94 58.2797 14.02 55.3397 12.2C51.6797 9.91996 48.9597 6.82996 45.9897 5.68996C40.9997 3.78996 37.4697 4.85996 35.5197 6.79996C33.5797 8.73996 32.5097 12.28 34.4097 17.27C35.5397 20.24 38.6397 22.95 40.9197 26.62C42.7397 29.55 43.6597 33.52 46.1197 36.74C48.2897 39.57 51.8697 41.53 54.4697 44.48C56.8797 47.2 58.3697 50.99 61.1097 53.73C63.8497 56.47 67.6397 57.95 70.3597 60.37C73.3097 62.98 75.2597 66.55 78.0997 68.73C81.3097 71.19 85.2797 72.11 88.2197 73.93C91.8797 76.21 94.5997 79.3 97.5697 80.44C102.56 82.35 106.1 81.28 108.04 79.33Z" stroke="#3BAF73" stroke-width="8.5729" stroke-miterlimit="10" stroke-linecap="round" stroke-linejoin="round"/>
<path d="M62.6502 138.29C52.5202 137.92 46.3102 140.43 46.3102 140.43C38.7202 143.2 33.1202 148.25 31.4502 154.15C30.8902 153.99 30.2802 153.91 29.6502 153.94C27.0102 154.05 24.9402 155.89 25.0302 158.05C25.1202 160.21 27.3302 161.87 29.9702 161.76C30.4902 161.74 30.9802 161.65 31.4402 161.5C33.9702 170.46 45.6702 176.89 59.4202 176.32C73.1502 175.75 84.2602 168.4 86.0702 159.28C86.4902 159.36 86.9402 159.4 87.4002 159.38C90.0402 159.27 92.1102 157.43 92.0202 155.27C91.9302 153.11 89.7202 151.45 87.0802 151.56C86.5002 151.58 85.9502 151.69 85.4502 151.87C82.6702 144.55 73.6802 139.15 62.6502 138.29Z" stroke="white" stroke-width="3.2199" stroke-miterlimit="10" stroke-linecap="round" stroke-linejoin="round"/>
<path d="M62.5547 154.408C63.879 154.353 64.8851 152.681 64.8018 150.672C64.7186 148.664 63.5776 147.08 62.2533 147.135C60.929 147.19 59.9229 148.862 60.0062 150.871C60.0894 152.879 61.2304 154.463 62.5547 154.408Z" fill="white"/>
<path d="M55.4746 154.708C56.7989 154.653 57.805 152.981 57.7218 150.972C57.6385 148.964 56.4975 147.38 55.1732 147.435C53.8489 147.49 52.8429 149.162 52.9261 151.171C53.0093 153.179 54.1503 154.763 55.4746 154.708Z" fill="white"/>
<path d="M75.8606 151.57C75.8606 151.57 76.1405 168.28 59.0405 168.99C41.9405 169.7 42.4706 152.95 42.4706 152.95" stroke="white" stroke-width="3.2199" stroke-miterlimit="10" stroke-linecap="round" stroke-linejoin="round"/>
<path d="M69.8609 143.58C70.264 143.58 70.5909 143.253 70.5909 142.85C70.5909 142.447 70.264 142.12 69.8609 142.12C69.4577 142.12 69.1309 142.447 69.1309 142.85C69.1309 143.253 69.4577 143.58 69.8609 143.58Z" fill="white"/>
<path d="M63.9898 142.37C64.3929 142.37 64.7198 142.043 64.7198 141.64C64.7198 141.237 64.3929 140.91 63.9898 140.91C63.5866 140.91 63.2598 141.237 63.2598 141.64C63.2598 142.043 63.5866 142.37 63.9898 142.37Z" fill="white"/>
<path d="M66.271 145C66.6742 145 67.001 144.673 67.001 144.27C67.001 143.867 66.6742 143.54 66.271 143.54C65.8679 143.54 65.541 143.867 65.541 144.27C65.541 144.673 65.8679 145 66.271 145Z" fill="white"/>
<path d="M58.5308 142.05C58.9339 142.05 59.2608 141.723 59.2608 141.32C59.2608 140.917 58.9339 140.59 58.5308 140.59C58.1276 140.59 57.8008 140.917 57.8008 141.32C57.8008 141.723 58.1276 142.05 58.5308 142.05Z" fill="white"/>
<path d="M61.3609 144.66C61.764 144.66 62.0909 144.333 62.0909 143.93C62.0909 143.527 61.764 143.2 61.3609 143.2C60.9577 143.2 60.6309 143.527 60.6309 143.93C60.6309 144.333 60.9577 144.66 61.3609 144.66Z" fill="white"/>
<path d="M52.6011 143.39C53.0043 143.39 53.3311 143.063 53.3311 142.66C53.3311 142.257 53.0043 141.93 52.6011 141.93C52.1979 141.93 51.8711 142.257 51.8711 142.66C51.8711 143.063 52.1979 143.39 52.6011 143.39Z" fill="white"/>
<path d="M55.9194 144.88C56.3226 144.88 56.6494 144.553 56.6494 144.15C56.6494 143.747 56.3226 143.42 55.9194 143.42C55.5163 143.42 55.1895 143.747 55.1895 144.15C55.1895 144.553 55.5163 144.88 55.9194 144.88Z" fill="white"/>
<path d="M49.9702 145.67C50.3734 145.67 50.7002 145.343 50.7002 144.94C50.7002 144.537 50.3734 144.21 49.9702 144.21C49.5671 144.21 49.2402 144.537 49.2402 144.94C49.2402 145.343 49.5671 145.67 49.9702 145.67Z" fill="white"/>
<path d="M47.1792 144.15C47.5824 144.15 47.9092 143.823 47.9092 143.42C47.9092 143.017 47.5824 142.69 47.1792 142.69C46.776 142.69 46.4492 143.017 46.4492 143.42C46.4492 143.823 46.776 144.15 47.1792 144.15Z" fill="white"/>
<path d="M74.6402 145.1C75.0433 145.1 75.3701 144.773 75.3701 144.37C75.3701 143.967 75.0433 143.64 74.6402 143.64C74.237 143.64 73.9102 143.967 73.9102 144.37C73.9102 144.773 74.237 145.1 74.6402 145.1Z" fill="white"/>
<path d="M71.0503 146.53C71.4535 146.53 71.7803 146.203 71.7803 145.8C71.7803 145.397 71.4535 145.07 71.0503 145.07C70.6471 145.07 70.3203 145.397 70.3203 145.8C70.3203 146.203 70.6471 146.53 71.0503 146.53Z" fill="white"/>
<path d="M45.9507 147.27C46.3539 147.27 46.6807 146.943 46.6807 146.54C46.6807 146.137 46.3539 145.81 45.9507 145.81C45.5475 145.81 45.2207 146.137 45.2207 146.54C45.2207 146.943 45.5475 147.27 45.9507 147.27Z" fill="white"/>
<path d="M42.1206 146.75C42.5238 146.75 42.8506 146.423 42.8506 146.02C42.8506 145.617 42.5238 145.29 42.1206 145.29C41.7175 145.29 41.3906 145.617 41.3906 146.02C41.3906 146.423 41.7175 146.75 42.1206 146.75Z" fill="white"/>
</svg>
