<svg width="147" height="238" viewBox="0 0 147 238" fill="none" xmlns="http://www.w3.org/2000/svg">
<path d="M57.5212 81.2902C43.9212 102.62 50.1912 130.93 71.5212 144.53C77.0312 148.04 83.0012 150.2 89.0712 151.15L88.9812 151.16L101.411 218.92L120.681 232.7L134.441 212.74L119.671 203.33L127.831 190.53L116.011 183L123.631 171.05L118.351 147.22L118.161 146.04C126.061 142.51 129.751 138.37 134.751 130.52C148.351 109.19 142.081 80.8802 120.751 67.2802C99.4312 53.7002 71.1112 59.9602 57.5212 81.2902Z" stroke="#F18818" stroke-width="9.6897" stroke-miterlimit="10" stroke-linecap="round" stroke-linejoin="round"/>
<path d="M89.9008 103.78C96.8596 103.78 102.501 98.1389 102.501 91.1801C102.501 84.2213 96.8596 78.5801 89.9008 78.5801C82.942 78.5801 77.3008 84.2213 77.3008 91.1801C77.3008 98.1389 82.942 103.78 89.9008 103.78Z" stroke="#F18818" stroke-width="9.6897" stroke-miterlimit="10" stroke-linecap="round" stroke-linejoin="round"/>
<path d="M39.2805 67.8901C35.5205 61.5201 33.5605 55.1101 33.5605 49.0801C33.5605 24.9301 53.1405 5.3501 77.2905 5.3501C101.441 5.3501 121.021 24.9301 121.021 49.0801C121.021 73.2301 104.591 90.4301 81.0905 93.5701" stroke="#89BD24" stroke-width="9.6897" stroke-miterlimit="10" stroke-linejoin="round"/>
<path d="M80.7507 61.6002C71.1007 58.6402 60.4207 58.8302 50.3207 62.8702C26.8407 72.2702 15.4207 98.9202 24.8207 122.41C27.2507 128.47 30.8407 133.71 35.2207 138.02L35.1407 137.98L5.7207 200.28L13.3307 222.71L36.1507 214.52L29.6407 198.26L43.7307 192.62L38.5207 179.6L51.6707 174.34L61.2807 151.91L61.8107 150.84C70.2907 152.58 72.6607 152.89 81.3007 149.43" stroke="#F18818" stroke-width="9.6897" stroke-miterlimit="10" stroke-linecap="round" stroke-linejoin="round"/>
</svg>
