<svg width="395" height="344" viewBox="0 0 395 344" fill="none" xmlns="http://www.w3.org/2000/svg">
<path d="M6.80078 337.6V307.11H45.8208V150.37L122.031 148.8V99.6102L164.651 98.8202L164.931 58.2002H229.541L230.271 98.4802L267.621 98.3302L269.311 148.32L347.491 150.37V308.13L388.201 309.82V337.6H6.80078Z" stroke="#F18719" stroke-width="12" stroke-miterlimit="10" stroke-linecap="round" stroke-linejoin="round"/>
<path d="M238.831 286.38H159.771V334H238.831V286.38Z" stroke="#F18719" stroke-width="8" stroke-miterlimit="10" stroke-linejoin="round"/>
<path d="M179.621 179.9H152.791V206.73H179.621V179.9Z" stroke="#F18719" stroke-width="8" stroke-miterlimit="10" stroke-linejoin="round"/>
<path d="M113.91 179.9H87.0801V206.73H113.91V179.9Z" stroke="#F18719" stroke-width="8" stroke-miterlimit="10" stroke-linejoin="round"/>
<path d="M308.262 179.9H281.432V206.73H308.262V179.9Z" stroke="#F18719" stroke-width="8" stroke-miterlimit="10" stroke-linejoin="round"/>
<path d="M244.25 179.9H217.42V206.73H244.25V179.9Z" stroke="#F18719" stroke-width="8" stroke-miterlimit="10" stroke-linejoin="round"/>
<path d="M240.391 120.19H213.561V147.02H240.391V120.19Z" stroke="#F18719" stroke-width="8" stroke-miterlimit="10" stroke-linejoin="round"/>
<path d="M178.06 120.19H151.23V147.02H178.06V120.19Z" stroke="#F18719" stroke-width="8" stroke-miterlimit="10" stroke-linejoin="round"/>
<path d="M179.621 228.78H152.791V255.61H179.621V228.78Z" stroke="#F18719" stroke-width="8" stroke-miterlimit="10" stroke-linejoin="round"/>
<path d="M113.91 228.78H87.0801V255.61H113.91V228.78Z" stroke="#F18719" stroke-width="8" stroke-miterlimit="10" stroke-linejoin="round"/>
<path d="M308.262 228.78H281.432V255.61H308.262V228.78Z" stroke="#F18719" stroke-width="8" stroke-miterlimit="10" stroke-linejoin="round"/>
<path d="M244.25 228.78H217.42V255.61H244.25V228.78Z" stroke="#F18719" stroke-width="8" stroke-miterlimit="10" stroke-linejoin="round"/>
<path d="M195.911 58.2L195.811 5.27002L226.971 21.87L198.851 37.46" stroke="#F18719" stroke-width="9" stroke-miterlimit="10" stroke-linejoin="round"/>
</svg>
