<svg width="49" height="31" viewBox="0 0 49 31" fill="none" xmlns="http://www.w3.org/2000/svg">
<path d="M43.8709 13.7055C43.392 13.7154 43.163 13.5277 42.9548 13.1425C42.6008 12.5104 42.2677 11.8388 41.7784 11.3055C40.9976 10.4462 40.0815 9.69556 39.2486 8.87579C37.8224 7.48318 36.0006 6.72267 34.1787 5.98192C32.8254 5.4387 32.8254 5.50784 33.6582 4.34239C33.8248 4.11522 33.8664 3.69052 33.7519 3.43373C33.6582 3.21644 33.2626 3.00903 32.9919 2.99915C32.3569 2.96952 31.7114 3.04854 31.0764 3.11767C30.5038 3.18681 29.9313 3.30533 29.1505 3.43373C29.4315 3.12755 29.5565 2.93989 29.723 2.80162C30.7641 1.90284 31.3158 1.16209 29.9313 0.559609C27.6201 -0.437937 23.4351 1.73494 21.6341 3.05841C21.0199 3.51274 20.4369 4.17448 19.7394 4.34239C17.4595 4.8856 15.19 5.39919 13.0246 6.31773C11.0779 7.14737 9.29767 8.15479 7.76733 9.56716C6.63259 10.6042 5.66441 11.7598 4.98773 13.103C4.7587 13.5475 4.52967 13.745 4.05079 13.6956C2.69743 13.5672 1.70843 14.2388 0.761076 15.0191C-0.352846 15.9179 -0.248741 18.6241 1.10462 19.6118C1.99992 20.2636 3.00974 20.4612 4.02997 20.6686C4.39433 20.7575 4.48803 20.9155 4.64419 21.2118C5.10225 22.0809 5.53949 22.9797 6.14329 23.7501C6.75751 24.5304 7.49666 25.2514 8.27744 25.8835C9.29767 26.6934 10.3804 27.4736 11.5255 28.1156C12.5145 28.6786 13.6076 29.1329 14.7111 29.449C22.6127 31.7305 31.6282 31.3848 38.6344 26.7131C40.7686 25.2909 42.3093 23.3847 43.3191 21.0834C43.4232 20.8463 43.8188 20.5797 44.0791 20.5797C45.5366 20.5599 46.5776 19.9574 47.5041 18.9006C48.3474 17.9426 48.1808 15.9475 47.3584 15.1277C46.3902 14.1796 45.2451 13.6857 43.8709 13.7055ZM45.7552 18.1006C45.141 18.4957 44.5476 18.9105 43.6939 18.8414C42.2468 18.7327 42.2052 18.7722 41.7159 20.0463C40.6332 22.8809 38.4783 24.7872 35.8236 26.2588C33.9809 27.2761 32.0029 27.9082 29.9417 28.481C27.0371 29.281 24.1222 29.1033 21.2073 29.0835C19.8331 29.0736 18.4693 28.5897 17.0951 28.323C14.8881 27.8983 12.9726 26.8514 11.1195 25.7452C9.98476 25.0736 8.87084 24.2341 8.06923 23.2365C7.18434 22.1501 6.60136 20.8365 6.01837 19.5624C5.66441 18.792 5.41456 18.5451 4.54008 18.7327C3.41575 18.9797 2.26019 18.3574 1.81253 17.508C1.52104 16.9648 2.11444 16.0561 2.94728 15.7105C3.59273 15.4438 4.21736 15.3055 4.93568 15.6117C5.50826 15.8586 5.87262 15.5919 6.16412 14.9993C6.63259 14.0512 7.26763 13.1722 7.82979 12.2635C8.83961 10.624 10.5157 9.64617 12.1397 8.72764C13.6284 7.88812 15.19 7.06835 16.9702 6.82144C18.0841 6.67329 19.198 6.50538 20.2807 6.24859C20.7596 6.13007 21.2385 5.83377 21.6029 5.50784C23.0707 4.22387 24.6427 3.12755 26.6415 2.71273C26.8497 2.66335 27.0996 2.77199 27.464 2.82137C26.6624 3.67077 26.6103 4.55967 26.6415 5.4387C26.6624 6.02142 27.5889 6.25846 28.2343 5.97204C29.0255 5.62636 29.8688 5.37944 30.8994 5.014C30.5871 6.77205 31.7635 7.05848 32.8774 7.44367C34.897 8.15479 36.8126 9.10295 38.395 10.4758C39.7275 11.6314 40.9872 12.9055 41.5806 14.6339C41.9033 15.5919 42.3301 15.7401 43.3504 15.4833C44.1624 15.2858 45.5886 15.829 46.0259 16.5006C46.2965 16.9253 46.2132 17.8142 45.7552 18.1006Z" fill="white"/>
<path d="M34.7409 13.419C34.1891 13.4981 34.033 13.8833 33.9809 14.387C33.8768 15.6018 33.7519 16.8166 33.5437 18.0117C33.1793 20.0858 31.7947 21.6365 30.1082 22.792C28.5363 23.8686 26.6103 24.3328 24.6427 24.4019C23.9036 24.4316 23.154 24.2933 22.4149 24.2735C20.6139 24.234 19.0003 23.6316 17.5532 22.7031C15.3566 21.3105 13.9512 19.3253 13.3578 16.8759C13.1183 15.908 12.9518 14.9203 12.7644 13.9326C12.6707 13.4388 12.2647 13.2808 11.8795 13.4289C11.5255 13.5573 11.0258 13.8931 11.005 14.1697C10.9321 14.8808 10.9634 15.6512 11.182 16.3425C11.6921 17.9821 12.2647 19.592 13.2849 21.0537C14.6383 22.9994 16.3872 24.4118 18.6567 25.2612C20.3744 25.9032 22.165 26.1797 23.9348 26.0217C25.9128 26.1007 27.7138 25.8044 29.5148 25.1526C31.3054 24.5106 32.5547 23.3254 33.679 21.9723C34.8242 20.5994 35.3031 18.9006 35.7091 17.2315C35.9485 16.2438 35.9069 15.1771 35.8965 14.14C35.8756 13.5079 35.3239 13.3499 34.7409 13.419Z" fill="white"/>
<path d="M25.9961 15.8389C26.5791 15.7994 27.2558 15.0784 27.3599 14.387C27.516 13.429 27.4431 12.5104 26.9643 11.6413C26.5478 10.9005 25.4131 10.7129 24.9863 11.4339C24.6531 12.0067 24.4657 12.6882 24.2679 13.2117C24.4137 13.8043 24.497 14.2389 24.6219 14.6537C24.8822 15.513 25.3298 15.8883 25.9961 15.8389Z" fill="white"/>
<path d="M21.3739 15.75C22.3212 15.5821 22.8001 14.5845 22.8626 13.1129C22.7272 12.7573 22.5815 12.0857 22.2379 11.5129C21.9673 11.0586 21.301 10.7227 20.8325 11.019C20.2912 11.3647 19.7186 11.9573 19.5937 12.5203C19.3959 13.3895 19.4167 14.3277 19.9684 15.187C20.3328 15.7697 20.7701 15.8586 21.3739 15.75Z" fill="white"/>
</svg>
