<svg width="74" height="54" viewBox="0 0 74 54" fill="none" xmlns="http://www.w3.org/2000/svg">
<path d="M44.3034 27.3402L32.2158 34.2474V20.433L44.3034 27.3402Z" stroke="white" stroke-width="3.951" stroke-linecap="round" stroke-linejoin="round"/>
<path d="M2.86035 29.7836V24.8964C2.86035 14.897 2.86035 9.89737 5.98756 6.68044C9.11479 3.46351 14.0382 3.32426 23.8848 3.04577C28.5508 2.9138 33.317 2.81924 37.3964 2.81924C41.4758 2.81924 46.2421 2.9138 50.9079 3.04577C60.7545 3.32426 65.678 3.46351 68.8052 6.68044C71.9324 9.89737 71.9324 14.897 71.9324 24.8964V29.7836C71.9324 39.7828 71.9324 44.7826 68.8052 47.9993C65.678 51.2163 60.7548 51.3555 50.9083 51.6342C46.2421 51.7661 41.4758 51.8608 37.3964 51.8608C33.317 51.8608 28.5506 51.7661 23.8845 51.6342C14.038 51.3555 9.11472 51.2163 5.98752 47.9993C2.86035 44.7826 2.86035 39.7828 2.86035 29.7836Z" stroke="white" stroke-width="3.951"/>
</svg>
