<svg width="59" height="58" viewBox="0 0 59 58" fill="none" xmlns="http://www.w3.org/2000/svg">
<path d="M29.5201 41.0467C35.9854 41.0467 41.2268 35.8053 41.2268 29.34C41.2268 22.8746 35.9854 17.6333 29.5201 17.6333C23.0547 17.6333 17.8135 22.8746 17.8135 29.34C17.8135 35.8053 23.0547 41.0467 29.5201 41.0467Z" stroke="white" stroke-width="4.39" stroke-linecap="round" stroke-linejoin="round"/>
<path d="M3.17969 41.0467V17.6333C3.17969 9.55158 9.73127 3 17.813 3H41.2264C49.3081 3 55.8597 9.55158 55.8597 17.6333V41.0467C55.8597 49.1284 49.3081 55.68 41.2264 55.68H17.813C9.73127 55.68 3.17969 49.1284 3.17969 41.0467Z" stroke="white" stroke-width="4.39"/>
<path d="M45.6162 13.2726L45.6455 13.2401" stroke="white" stroke-width="4.39" stroke-linecap="round" stroke-linejoin="round"/>
</svg>
