<svg width="203" height="57" viewBox="0 0 203 57" fill="none" xmlns="http://www.w3.org/2000/svg">
<path d="M116.793 43.0311C116.793 41.892 116.808 40.7529 116.793 39.6138C116.793 40.7529 116.793 41.892 116.793 43.0311Z" fill="white"/>
<path d="M101.907 43.4929C101.907 43.8315 101.907 44.1548 101.907 44.4934C101.907 44.1702 101.907 43.8315 101.907 43.4929C101.907 42.6463 101.923 41.7842 101.907 40.9376C101.923 41.7996 101.907 42.6463 101.907 43.4929Z" fill="white"/>
<path d="M90.282 34.9651C92.1273 34.1801 93.9419 34.688 95.6027 35.7348C96.8944 36.5506 97.9862 36.3967 98.6782 35.273C99.201 34.4263 98.8627 33.395 97.4941 32.5022C95.5104 31.1938 93.2653 30.7936 90.9894 31.1476C89.4977 31.3785 87.8677 31.7941 86.6529 32.6407C84.3309 34.2416 82.8239 36.5814 82.6701 39.5061C82.6086 40.6913 82.747 41.9382 83.1007 43.0772C83.7619 45.2169 84.8537 47.0641 86.9143 48.2955C89.5285 49.8348 92.1888 50.1119 95.0798 49.3576C97.9247 48.6034 98.8935 47.4797 98.8935 44.5242C98.8935 44.1855 98.8935 43.8623 98.8935 43.5236C98.8935 42.677 98.9089 41.815 98.8935 40.9684C98.8627 39.583 98.2784 38.9057 96.9098 38.8595C95.3874 38.798 93.865 38.7672 92.358 38.8749C91.7736 38.9211 91.0201 39.2136 90.6818 39.6446C90.3589 40.0602 90.2666 40.953 90.4973 41.3994C90.7895 41.9536 91.4815 42.4307 92.0966 42.6309C92.7271 42.8464 93.4959 42.6924 94.1879 42.677C94.7723 42.6616 95.0645 42.831 95.0952 43.4775C95.2029 45.2785 94.6339 45.8788 92.6809 46.0327C90.3128 46.2174 88.529 45.1091 87.2372 43.3235C86.3607 42.1229 86.0224 40.7529 86.5299 39.0443C87.1604 36.9046 88.4828 35.7194 90.282 34.9651Z" fill="white"/>
<path d="M122.652 26.1603C123.913 26.8684 125.358 27.4225 126.973 26.6375C127.588 26.345 128.557 26.4066 129.234 26.6529C130.479 27.0839 131.74 26.4989 131.771 25.1289C131.832 20.7265 131.832 16.3241 131.755 11.9217C131.74 11.229 131.433 10.3054 130.94 9.90519C129.787 8.9816 128.372 9.82822 128.326 11.3367C128.295 12.445 128.326 13.5687 128.326 14.8156C127.88 14.7078 127.603 14.6616 127.342 14.5847C122.913 13.4148 119.669 16.4319 119.515 20.3879C119.392 22.8815 120.499 24.9442 122.652 26.1603ZM125.543 17.7557C126.881 17.7557 128.557 19.4951 128.48 20.8189C128.403 22.1735 126.912 23.4203 125.389 23.4203C124.005 23.4203 122.821 22.1581 122.836 20.6649C122.836 19.0179 124.021 17.7557 125.543 17.7557Z" fill="white"/>
<path d="M176.535 38.6902C176.489 36.6737 175.305 35.9656 173.49 36.7199C173.091 36.8892 172.475 36.843 172.06 36.6583C169.646 35.6886 167.616 36.5506 165.878 38.0899C164.371 39.4291 163.849 41.2147 163.787 43.2927C163.679 47.2488 167.647 50.6198 171.476 49.5885C172.291 49.373 173.152 48.9882 174.075 49.5269C175.013 50.0657 176.151 49.4962 176.289 48.4032C176.504 46.6177 176.535 44.8167 176.643 43.0157C176.612 43.0157 176.566 43.0157 176.535 43.0157C176.535 41.5841 176.566 40.1372 176.535 38.6902ZM170.23 46.1713C168.477 46.1097 167.186 44.7243 167.186 42.8925C167.186 41.1993 168.431 39.9832 170.169 39.9832C171.707 39.9832 172.952 41.307 172.967 42.9695C172.967 44.6627 171.63 46.2328 170.23 46.1713Z" fill="white"/>
<path d="M113.764 43.0311C113.764 41.892 113.779 40.7529 113.764 39.6138C113.764 39.229 113.764 38.8595 113.748 38.4747C113.718 36.7969 112.549 36.1042 110.98 36.6891C110.427 36.8892 109.689 36.9816 109.166 36.7815C106.567 35.7963 103.584 36.997 102.184 39.1366C100.893 41.1223 100.508 43.1388 101.431 45.5094C102.63 48.588 105.337 50.2658 108.643 49.6501C109.35 49.5116 110.042 48.9266 110.903 49.4654C112.272 50.3274 113.825 49.1729 113.764 47.6028C113.748 47.218 113.733 46.8486 113.733 46.4637C113.733 45.3092 113.764 44.1702 113.764 43.0311ZM107.505 46.1867C105.583 46.1713 104.645 45.0937 104.66 42.9233C104.66 41.1223 105.721 39.9832 107.367 39.9832C108.966 39.9832 110.211 41.4456 110.211 43.3235C110.211 44.6473 108.751 46.202 107.505 46.1867Z" fill="white"/>
<path d="M147.364 42.9387C147.364 41.4918 147.364 40.0448 147.364 38.5979C147.364 36.6891 146.195 35.9656 144.473 36.7507C144.119 36.9046 143.627 37.0124 143.289 36.9046C140.229 35.8117 137.891 36.6121 135.892 39.2752C134.216 41.5225 134.57 45.2477 135.831 47.141C137.215 49.2037 139.414 50.1734 142.151 49.6347C142.966 49.4808 143.888 49.2653 144.657 49.4808C146.303 49.9579 147.364 49.3268 147.379 47.6028C147.379 46.0481 147.364 44.4934 147.364 42.9387ZM140.921 46.2174C139.506 46.2482 138.014 44.6319 138.014 43.0772C138.03 41.2301 139.306 40.0448 141.151 39.9678C142.412 39.9063 143.719 41.1377 143.796 43.1388C143.812 44.6319 142.351 46.1866 140.921 46.2174Z" fill="white"/>
<path d="M136.2 25.9601C137.599 26.8068 139.106 27.2686 140.797 26.7298C141.459 26.5143 142.289 26.4373 142.95 26.6066C144.473 27.0223 145.272 26.5297 145.288 24.9288C145.303 23.4972 145.288 22.0657 145.288 20.6341C145.272 20.6341 145.272 20.6341 145.257 20.6341C145.257 19.0948 145.303 17.5555 145.242 16.0316C145.195 14.7232 143.873 13.8304 142.827 14.4923C142.089 14.9541 141.551 14.8309 140.859 14.6308C137.43 13.6919 134.877 15.2466 133.831 18.0789C132.94 20.5264 132.909 23.959 136.2 25.9601ZM136.676 20.6187C136.799 18.7254 137.461 17.7402 139.352 17.7402C140.767 17.7402 141.905 18.9717 141.905 20.4956C142.074 22.0195 140.905 23.3895 139.167 23.4665C137.553 23.528 136.584 22.1273 136.676 20.6187Z" fill="white"/>
<path d="M154.791 36.6275C154.176 36.7507 153.776 36.566 153.792 35.8271C153.807 34.9805 153.73 34.1185 153.807 33.2719C153.899 32.2713 152.7 31.4247 151.716 31.517C150.655 31.6248 150.024 32.3329 150.039 33.4104C150.055 35.9964 150.039 38.5825 150.039 41.1685C150.101 41.1685 150.162 41.1685 150.224 41.1685C150.224 43.4005 150.162 45.6171 150.255 47.8337C150.286 48.4186 150.624 49.2499 151.085 49.5115C152.423 50.2504 153.761 49.3114 153.807 47.6644C153.853 45.7402 153.853 43.8161 153.838 41.8766C153.838 41.0146 154.33 40.5682 155.037 40.2141C156.421 39.506 158.374 40.7991 158.39 42.9079C158.405 44.6935 158.451 46.4637 158.359 48.2493C158.328 48.9882 158.666 49.3268 159.22 49.5731C160.481 50.1273 161.742 49.296 161.788 47.8183C161.849 45.7864 161.926 43.7238 161.726 41.7073C161.434 38.2592 158.574 35.8733 154.791 36.6275Z" fill="white"/>
<path d="M86.9912 24.7441C87.0066 23.4819 87.0066 22.235 86.9912 20.9728C86.9912 20.3879 87.145 20.0646 87.8216 20.0646C89.2056 20.0338 90.5896 19.9261 91.9736 19.8645C92.8962 19.8183 93.6805 19.2026 93.6651 18.5253C93.619 17.2015 93.1423 16.6781 91.8967 16.6781C90.5742 16.6627 89.2363 16.6781 87.9139 16.6781C87.2065 16.6781 86.8374 16.3087 86.8374 15.616C86.8221 14.8771 86.8374 14.1537 86.8374 13.2609C87.3449 13.2147 87.7447 13.1685 88.1599 13.1685C89.6208 13.1531 91.097 13.1839 92.5579 13.1531C93.6651 13.1377 94.557 12.3527 94.5416 11.4599C94.5416 10.4131 93.8496 9.75124 92.6502 9.73585C90.3128 9.72046 87.9754 9.70507 85.638 9.75125C83.9464 9.78203 83.4697 10.3208 83.4697 12.0448C83.4697 16.2779 83.4697 20.4956 83.4697 24.7287C83.4697 26.1449 84.0079 26.776 85.2074 26.7914C86.3915 26.776 86.9758 26.1295 86.9912 24.7441Z" fill="white"/>
<path d="M171.245 14.3846C167.355 14.2306 164.971 17.3246 165.033 20.6957C165.094 24.3593 167.432 26.6375 171.03 26.9761C174.536 26.6836 177.104 24.467 177.073 21.1113C177.043 17.2169 174.982 14.5385 171.245 14.3846ZM170.876 23.4511C169.308 23.2972 168.523 22.5429 168.523 20.7881C168.523 18.8486 169.477 17.7403 171.138 17.7557C172.675 17.7557 173.767 19.0179 173.767 20.7419C173.936 22.2812 172.537 23.605 170.876 23.4511Z" fill="white"/>
<path d="M189.775 19.1102C189.806 17.8788 189.252 16.9244 188.514 16.047C186.976 14.2152 184.993 14.1229 182.855 14.6462C182.548 14.7232 182.163 14.7694 181.902 14.6462C180.118 13.7996 179.211 14.9541 179.242 16.2471C179.257 17.6787 179.242 19.1102 179.242 20.5418C179.242 21.9426 179.242 23.3433 179.242 24.7287C179.242 25.9447 180.041 26.9915 180.948 26.9607C181.81 26.9299 182.717 25.8062 182.717 24.7441C182.717 23.1432 182.671 21.5269 182.748 19.9261C182.778 19.218 182.763 18.3868 183.609 17.9557C185.008 17.2477 186.592 18.1866 186.592 19.7721C186.607 21.5577 186.577 23.3279 186.607 25.1135C186.623 26.3142 187.192 26.8068 188.376 26.7606C189.299 26.7298 189.744 26.2064 189.76 25.0827C189.775 23.0816 189.729 21.0959 189.775 19.1102Z" fill="white"/>
<path d="M187.422 37.2433C186.223 36.6122 184.931 36.2427 183.517 36.4736C182.855 36.5814 182.179 36.7045 181.533 36.6276C179.58 36.3659 178.965 36.8431 178.949 38.8749C178.934 40.2757 178.949 41.6919 178.949 43.0926H178.965C178.965 44.5704 178.934 46.0635 178.98 47.5412C179.026 48.8497 179.826 49.804 180.779 49.7886C181.84 49.7732 182.548 48.865 182.563 47.4797C182.563 45.6941 182.548 43.9239 182.563 42.1383C182.579 40.6913 183.178 40.0602 184.316 39.9678C185.531 39.8755 186.869 40.8606 186.807 42.1537C186.7 44.1086 186.684 46.0943 186.838 48.0338C186.884 48.6034 187.545 49.3114 188.099 49.5885C188.499 49.7886 189.406 49.5885 189.729 49.2345C190.129 48.8035 190.298 48.0492 190.313 47.4181C190.375 45.6479 190.283 43.8623 190.283 42.0921C190.313 39.8755 189.329 38.2592 187.422 37.2433Z" fill="white"/>
<path d="M118.192 25.0366C118.208 23.2202 118.254 21.4038 118.177 19.5874C118.054 16.8475 115.809 14.323 112.887 14.3692C111.734 14.3846 110.58 14.4 109.412 14.3692C108.166 14.3384 107.69 14.7386 107.659 16.0008C107.628 17.5402 107.659 19.0795 107.659 20.6034C107.659 20.6034 107.659 20.6034 107.674 20.6034C107.674 22.2043 107.674 23.8205 107.674 25.4214C107.674 26.2834 108.228 26.776 108.966 26.9145C109.673 27.0531 110.242 26.6836 110.488 25.9602C110.657 25.4522 110.857 24.9134 110.873 24.3747C110.919 22.9123 110.857 21.4346 110.903 19.9723C110.919 19.4181 111.073 18.8332 111.334 18.356C111.795 17.494 112.718 17.5402 113.441 17.7864C114.21 18.0481 114.825 18.6792 114.84 19.6336C114.855 21.4192 114.84 23.1894 114.855 24.975C114.871 26.1449 115.563 26.9299 116.547 26.9299C117.362 26.9607 118.192 26.0217 118.192 25.0366Z" fill="white"/>
<path d="M94.7415 21.1575C94.7108 22.9277 95.2797 24.4055 96.6176 25.6215C99.647 28.3615 103.461 26.5143 104.798 23.7743C105.291 22.7584 105.429 21.7425 105.321 20.6034C105.183 19.1872 105.398 17.7556 105.398 16.3241C105.398 15.185 104.614 14.3846 103.599 14.4C102.615 14.4154 102.061 15.0773 102.061 16.2933C102.046 17.9712 102.077 19.649 102.046 21.3268C102.031 22.5429 101.246 23.4049 100.231 23.4357C98.4629 23.4819 98.1246 23.2048 97.9401 21.5423C97.9093 21.2653 97.9247 20.9882 97.9247 20.7111C97.9247 19.2026 98.0016 17.7095 97.8939 16.2009C97.7863 14.5693 97.2173 14.3538 96.187 14.4C95.249 14.4307 94.7261 15.0926 94.7108 16.2471C94.7108 17.1245 94.7108 17.9865 94.7108 18.864C94.7415 19.6182 94.7569 20.3879 94.7415 21.1575Z" fill="white"/>
<path d="M156.959 25.8062C157.498 25.483 158.236 24.7133 158.159 24.2669C157.944 22.8354 156.621 22.0195 155.345 22.8815C154.622 23.3741 153.991 23.4049 153.269 23.4203C151.039 23.4357 149.84 21.6193 150.685 19.572C151.439 17.771 153.638 17.1553 155.145 18.3098C156.037 19.0025 157.298 18.7562 157.821 17.7864C158.374 16.7397 158.097 15.9393 156.806 15.2312C154.714 14.0921 152.5 13.9843 150.393 15.0618C148.179 16.2009 147.072 18.1251 147.164 20.6649C147.164 21.1113 147.056 21.6039 147.179 22.0195C148.456 26.4989 152.992 28.1921 156.959 25.8062Z" fill="white"/>
<path d="M129.203 38.4285C129.187 39.9524 129.203 41.461 129.203 42.9849C129.203 41.4764 129.187 39.9524 129.203 38.4285Z" fill="white"/>
<path d="M133.878 36.7815C133.247 36.5044 132.432 36.6276 131.679 36.6276C130.741 36.6276 129.941 37.428 128.849 36.7969C127.311 35.8887 126.189 36.6276 126.173 38.4439C126.158 39.9679 126.173 41.4764 126.173 43.0003C126.173 44.1702 126.158 45.34 126.173 46.5099C126.173 46.8947 126.173 47.295 126.189 47.6798C126.204 48.942 126.942 49.804 127.942 49.804C128.926 49.7886 129.741 48.8958 129.756 47.7106C129.787 46.4483 129.741 45.1861 129.772 43.9239C129.803 41.815 131.202 40.2757 133.232 39.737C133.801 39.583 134.431 38.8903 134.616 38.3054C134.754 37.8744 134.293 36.9662 133.878 36.7815Z" fill="white"/>
<path d="M123.867 36.7045C123.113 36.5506 122.252 36.6429 121.483 36.8431C120.607 37.0586 119.822 37.4588 118.961 36.6891C118.669 36.4428 117.962 36.4428 117.562 36.5968C117.07 36.7815 116.485 37.1201 116.639 37.8898C116.716 38.2438 116.639 38.6286 116.639 38.9981C116.639 42.1075 116.624 45.2323 116.67 48.3417C116.685 49.1267 117.623 49.9272 118.315 49.7424C119.115 49.5423 119.807 49.1575 119.776 48.1108C119.73 46.9255 119.592 45.7095 119.822 44.5704C120.053 43.3697 120.607 42.2152 121.13 41.0915C121.56 40.1834 122.483 40.0448 123.405 39.8909C124.359 39.7523 124.989 39.152 125.112 37.8128C124.713 37.4434 124.343 36.7969 123.867 36.7045Z" fill="white"/>
<path d="M160.127 20.4802C160.127 19.0487 160.112 17.6171 160.127 16.1855C160.127 17.6325 160.127 19.0641 160.127 20.4802C160.127 22.0195 160.096 23.5434 160.143 25.0827C160.096 23.5588 160.127 22.0195 160.127 20.4802Z" fill="white"/>
<path d="M163.295 25.4522C163.372 22.2812 163.387 19.0948 163.28 15.9239C163.233 14.6001 162.711 14.2922 161.496 14.3846C160.573 14.4461 160.143 15.0311 160.127 16.2009C160.112 17.6325 160.127 19.0641 160.127 20.4956C160.127 22.0349 160.096 23.5588 160.143 25.0981C160.173 25.9909 160.558 26.6836 161.557 26.8376C162.295 26.9453 163.28 26.2988 163.295 25.4522Z" fill="white"/>
<path d="M171.891 13.3532C172.506 13.3994 173.306 13.4918 173.736 13.1685C174.674 12.5066 175.443 11.5984 176.258 10.7672C176.335 10.6902 176.274 10.5055 176.274 10.367C176.335 10.3054 176.397 10.2438 176.458 10.1823C176.089 9.84361 175.735 9.27406 175.336 9.24328C174.551 9.1817 173.567 9.1817 173.014 9.59732C172.291 10.1515 171.891 11.1366 171.368 11.9371C170.984 12.4758 171.261 13.307 171.891 13.3532Z" fill="white"/>
<path d="M161.496 13.3378C162.926 13.3532 163.51 12.7837 163.495 11.3983C163.48 10.4747 162.634 9.58192 161.757 9.55114C160.804 9.52035 160.143 10.367 160.143 11.5984C160.127 13.1531 160.281 13.3224 161.496 13.3378Z" fill="white"/>
<path d="M71.5367 25.7446C70.8293 25.76 70.491 25.4676 70.1835 24.8672C69.6606 23.8821 69.1686 22.8353 68.4458 22.0041C67.2925 20.6649 65.9393 19.495 64.7091 18.2174C62.6023 16.047 59.9112 14.8617 57.2201 13.7072C55.2211 12.8606 55.2211 12.9684 56.4513 11.152C56.6973 10.798 56.7588 10.1361 56.5897 9.73583C56.4513 9.39718 55.8669 9.07393 55.4671 9.05854C54.5291 9.01236 53.5756 9.1355 52.6376 9.24325C51.7918 9.351 50.9461 9.53572 49.7928 9.73583C50.208 9.25865 50.3925 8.96618 50.6385 8.75067C52.1763 7.3499 52.9913 6.19542 50.9461 5.25645C47.5322 3.70175 41.3504 7.08822 38.6901 9.15089C37.7828 9.85897 36.9217 10.8903 35.8914 11.152C32.5237 11.9986 29.1714 12.7991 25.9728 14.2306C23.0972 15.5236 20.4676 17.0937 18.2071 19.2949C16.531 20.9112 15.1008 22.7122 14.1013 24.8056C13.763 25.4983 13.4247 25.8062 12.7173 25.7292C10.7182 25.5291 9.25734 26.5759 7.85797 27.7919C6.21257 29.1927 6.36634 33.4104 8.36543 34.9497C9.68791 35.9656 11.1795 36.2735 12.6865 36.5967C13.2248 36.7353 13.3632 36.9816 13.5938 37.4434C14.2704 38.798 14.9163 40.1987 15.8082 41.3994C16.7155 42.6154 17.8073 43.7391 18.9606 44.7243C20.4676 45.9865 22.0669 47.2026 23.7584 48.2031C25.2193 49.0805 26.834 49.7886 28.464 50.2812C40.1356 53.837 53.4526 53.2982 63.8018 46.0173C66.9542 43.8007 69.2301 40.8298 70.7217 37.2433C70.8755 36.8738 71.4598 36.4582 71.8443 36.4582C73.9971 36.4274 75.5349 35.4884 76.9035 33.8414C78.1491 32.3483 77.903 29.2389 76.6882 27.9612C75.2581 26.4835 73.5666 25.7138 71.5367 25.7446ZM74.3201 32.5945C73.4128 33.2103 72.5363 33.8568 71.2753 33.749C69.1378 33.5797 69.0763 33.6413 68.3535 35.627C66.7543 40.0448 63.5711 43.0157 59.6498 45.3092C56.928 46.8947 54.0062 47.8799 50.9614 48.7727C46.6711 50.0195 42.3654 49.7424 38.0596 49.7116C36.0298 49.6962 34.0153 48.942 31.9855 48.5264C28.7254 47.8645 25.8959 46.2328 23.1587 44.5088C21.4825 43.4621 19.8371 42.1536 18.6531 40.5989C17.346 38.9057 16.4848 36.8584 15.6237 34.8727C15.1008 33.6721 14.7318 33.2872 13.44 33.5797C11.7793 33.9645 10.0723 32.9948 9.41111 31.671C8.98054 30.8243 9.85706 29.4082 11.0873 28.8694C12.0407 28.4538 12.9633 28.2383 14.0244 28.7155C14.8702 29.1003 15.4084 28.6847 15.839 27.7611C16.531 26.2834 17.469 24.9134 18.2994 23.4972C19.791 20.942 22.2668 19.4181 24.6657 17.9865C26.8647 16.6781 29.1714 15.4005 31.8009 15.0157C33.4463 14.7848 35.0917 14.5231 36.691 14.1229C37.3984 13.9381 38.1058 13.4763 38.644 12.9684C40.8122 10.9673 43.1342 9.25865 46.0867 8.61214C46.3943 8.53517 46.7634 8.70449 47.3016 8.78146C46.1175 10.1053 46.0406 11.4906 46.0867 12.8606C46.1175 13.7688 47.4861 14.1382 48.4395 13.6919C49.6082 13.1531 50.8538 12.7683 52.3762 12.1987C51.9149 14.9387 53.6525 15.3851 55.2979 15.9854C58.2812 17.0937 61.1107 18.5715 63.4481 20.7111C65.4164 22.5121 67.2771 24.4978 68.1536 27.1916C68.6303 28.6847 69.2608 28.9156 70.7678 28.5154C71.9673 28.2075 74.074 29.0541 74.7199 30.1009C75.1197 30.7628 74.9967 32.1481 74.3201 32.5945Z" fill="white"/>
<path d="M58.0505 25.2982C57.2355 25.4214 57.0048 26.0217 56.9279 26.8067C56.7741 28.7001 56.5896 30.5934 56.282 32.456C55.7438 35.6885 53.6986 38.1053 51.2074 39.9063C48.8854 41.5841 46.0405 42.3076 43.1342 42.4153C42.0424 42.4615 40.9352 42.246 39.8434 42.2152C37.183 42.1536 34.7995 41.2147 32.662 39.7677C29.4173 37.5973 27.3414 34.5033 26.4648 30.6858C26.1111 29.1773 25.8651 27.638 25.5883 26.0987C25.4499 25.329 24.8502 25.0827 24.2812 25.3136C23.7584 25.5137 23.0202 26.0371 22.9895 26.4681C22.8818 27.5764 22.928 28.7771 23.2509 29.8546C24.0044 32.4098 24.8502 34.9189 26.3572 37.1971C28.3563 40.2295 30.9397 42.4307 34.292 43.7545C36.8293 44.7551 39.4743 45.1861 42.0885 44.9398C45.0102 45.0629 47.6706 44.6011 50.3309 43.5852C52.9759 42.5846 54.8212 40.7375 56.4819 38.6286C58.1735 36.489 58.8809 33.8414 59.4806 31.24C59.8343 29.7006 59.7728 28.0382 59.7574 26.4219C59.7266 25.4368 58.9116 25.1905 58.0505 25.2982Z" fill="white"/>
<path d="M45.1333 29.0696C45.9945 29.008 46.994 27.8843 47.1478 26.8068C47.3784 25.3136 47.2708 23.8821 46.5634 22.5275C45.9483 21.373 44.2722 21.0806 43.6417 22.2042C43.1496 23.097 42.8728 24.1592 42.5806 24.975C42.7959 25.8986 42.9189 26.5759 43.1035 27.2224C43.4879 28.5616 44.1491 29.1465 45.1333 29.0696Z" fill="white"/>
<path d="M38.3057 28.931C39.705 28.6693 40.4124 27.1146 40.5047 24.8211C40.3048 24.2669 40.0895 23.2202 39.582 22.3274C39.1822 21.6193 38.198 21.0959 37.506 21.5577C36.7064 22.0965 35.8606 23.0201 35.6761 23.8975C35.3839 25.2521 35.4147 26.7144 36.2297 28.0536C36.7679 28.9618 37.4138 29.1003 38.3057 28.931Z" fill="white"/>
</svg>
